<svg width="0" height="0" style="display: none">
<symbol id="benefits_delivery" version="1.0" xmlns="http://www.w3.org/2000/svg" viewBox="0 0 160.000000 160.000000" preserveAspectRatio="xMidYMid meet"><g transform="translate(0.000000,160.000000) scale(0.100000,-0.100000)" fill="#000000" stroke="none"><path d="M195 1167 c-3 -7 -4 -136 -3 -287 l3 -275 84 -3 c71 -2 87 0 105 16
62 57 157 55 205 -2 11 -14 44 -16 210 -16 l196 1 32 29 33 30 0 260 0 260
-430 0 c-338 0 -432 -3 -435 -13z"/><path d="M1090 851 l0 -188 43 -6 c48 -7 94 -49 104 -98 5 -28 7 -29 69 -29
52 0 68 4 85 21 20 20 21 30 17 172 -3 139 -5 156 -27 194 -44 78 -132 123
-238 123 l-53 0 0 -189z m188 111 c51 -23 82 -72 89 -136 4 -42 2 -57 -8 -60
-8 -3 -61 5 -119 17 l-105 22 -3 79 c-2 44 -1 85 2 93 7 17 94 8 144 -15z"/><path d="M454 639 c-70 -19 -104 -104 -65 -167 65 -103 229 -39 207 81 -11 61
-79 102 -142 86z m70 -68 c25 -27 17 -72 -15 -90 -24 -13 -29 -13 -53 2 -17
12 -26 26 -26 44 0 55 59 83 94 44z"/><path d="M1071 637 c-44 -15 -73 -55 -74 -100 -2 -70 45 -117 119 -117 51 0
104 53 104 104 0 87 -71 140 -149 113z m71 -59 c9 -7 19 -23 23 -35 9 -32 -36
-77 -68 -68 -47 15 -61 61 -27 95 23 23 49 26 72 8z"/><path d="M190 571 c0 -35 13 -41 86 -41 41 0 74 4 74 9 0 5 3 16 6 25 5 14 -6
16 -80 16 -47 0 -86 -4 -86 -9z"/><path d="M610 568 c1 -36 14 -39 191 -36 172 3 174 3 177 26 l3 22 -185 0
c-142 0 -186 -3 -186 -12z"/></g></symbol>
<symbol id="benefits_receive" version="1.0" xmlns="http://www.w3.org/2000/svg" viewBox="0 0 160.000000 160.000000" preserveAspectRatio="xMidYMid meet"><g transform="translate(0.000000,160.000000) scale(0.100000,-0.100000)" fill="#000000" stroke="none"><path d="M160 845 c0 -352 2 -420 15 -445 31 -61 25 -60 577 -60 541 0 532 0
572 53 18 24 21 42 21 130 l0 102 -165 5 c-107 3 -173 9 -187 18 -38 22 -53
64 -53 153 0 86 19 137 58 155 9 5 91 11 182 14 l165 5 0 102 c0 88 -3 106
-21 130 -40 54 -28 53 -616 53 l-548 0 0 -415z"/><path d="M999 911 c-27 -28 -29 -34 -29 -109 0 -72 3 -84 26 -111 l26 -31 192
2 191 3 0 135 0 135 -188 3 -188 2 -30 -29z m151 -71 c11 -11 20 -29 20 -40 0
-25 -34 -60 -59 -60 -19 0 -61 43 -61 62 0 15 48 58 65 58 8 0 24 -9 35 -20z"/></g></symbol>
<symbol id="benefits_swapReturn" version="1.0" xmlns="http://www.w3.org/2000/svg" viewBox="0 0 160.000000 160.000000" preserveAspectRatio="xMidYMid meet"><g transform="translate(0.000000,160.000000) scale(0.100000,-0.100000)" fill="#000000" stroke="none"><path d="M825 1504 c-168 -26 -349 -140 -437 -275 -17 -27 -33 -49 -35 -49 -2
0 -27 16 -56 35 -28 19 -55 35 -59 35 -9 0 -9 -224 1 -355 l6 -90 214 79 215
80 -37 29 -36 30 36 70 c52 98 140 185 238 233 78 39 80 39 194 39 110 0 120
-2 183 -32 38 -18 85 -45 105 -60 l37 -28 -22 31 c-62 89 -185 173 -302 208
-56 17 -193 28 -245 20z"/><path d="M1161 716 l-215 -80 37 -29 36 -30 -36 -70 c-52 -98 -140 -185 -238
-233 -78 -39 -80 -39 -194 -39 -110 0 -120 2 -183 32 -38 18 -85 45 -105 60
l-37 28 22 -31 c63 -90 185 -173 308 -210 80 -24 238 -24 319 0 139 41 285
147 357 257 17 27 33 49 35 49 2 0 27 -16 56 -35 28 -19 55 -35 59 -35 9 0 9
224 -1 355 l-6 90 -214 -79z"/></g></symbol>
<symbol id="benefits_worldBrands" version="1.0" xmlns="http://www.w3.org/2000/svg" viewBox="0 0 160.000000 160.000000" preserveAspectRatio="xMidYMid meet"><g transform="translate(0.000000,160.000000) scale(0.100000,-0.100000)" fill="#000000" stroke="none"><path d="M678 1460 c-301 -54 -515 -296 -535 -600 -8 -140 33 -282 117 -405
52 -76 173 -141 295 -158 39 -6 38 -5 -26 29 -151 80 -276 259 -294 419 -2 22
-2 32 1 23 3 -9 18 -21 35 -27 16 -5 29 -16 29 -23 1 -24 38 -58 64 -58 47 0
64 -29 61 -106 -1 -38 -5 -77 -10 -87 -12 -29 15 -67 78 -108 75 -49 119 -63
173 -55 50 6 150 54 177 84 18 20 18 20 -1 26 -26 9 -33 27 -39 115 -5 58 -11
78 -30 99 -12 14 -23 31 -23 37 0 7 -9 23 -19 36 -17 21 -28 24 -88 24 -89 0
-124 20 -118 67 3 18 7 54 10 79 6 45 35 88 81 116 18 12 18 13 2 23 -25 16
-24 70 1 70 10 0 25 7 32 16 11 14 10 18 -5 30 -10 7 -24 15 -30 17 -15 6 3
35 32 55 20 13 22 12 28 -4 8 -22 34 -54 44 -54 11 0 40 70 40 99 0 37 32 67
56 53 13 -7 29 -6 57 5 21 9 39 14 40 12 1 -2 7 -13 13 -24 17 -30 68 -41 99
-21 14 9 25 20 25 24 0 5 -17 18 -37 31 -21 12 -29 20 -18 16 48 -15 131 -75
186 -132 69 -74 122 -179 140 -275 7 -38 16 -68 19 -68 4 0 21 5 39 11 37 13
39 33 16 122 -69 264 -307 458 -582 472 -48 2 -109 0 -135 -5z m-183 -244 c2
-31 1 -55 -3 -54 -4 0 -22 -3 -40 -7 -25 -6 -34 -14 -40 -39 -7 -25 -14 -32
-38 -34 -16 -2 -33 -9 -39 -16 -5 -7 -25 -21 -43 -30 l-34 -17 37 69 c42 81
169 212 187 194 5 -5 12 -35 13 -66z"/><path d="M1045 1257 c-22 -12 -44 -37 -45 -51 0 -5 7 -2 16 5 9 7 36 16 61 19
l44 5 -28 17 c-22 13 -33 14 -48 5z"/><path d="M813 1237 c6 -17 -2 -30 -28 -46 -17 -10 -14 -10 20 -5 59 10 72 23
43 46 -27 21 -42 23 -35 5z"/><path d="M732 1062 c-34 -10 -31 -27 5 -30 20 -2 40 -13 52 -28 18 -23 25 -25
65 -19 40 6 46 5 61 -19 20 -31 50 -34 65 -7 5 11 10 22 10 25 0 10 -55 33
-94 39 -21 3 -56 15 -77 27 -42 21 -50 22 -87 12z"/><path d="M1010 895 c0 -14 9 -43 20 -64 18 -36 23 -39 67 -43 61 -5 173 35
173 61 0 27 -23 50 -53 53 -25 3 -30 -2 -40 -32 -9 -27 -20 -38 -47 -47 -33
-11 -36 -10 -67 22 -18 19 -33 44 -33 55 0 11 -4 20 -10 20 -5 0 -10 -11 -10
-25z"/><path d="M1210 772 c-113 -41 -207 -77 -209 -79 -3 -2 4 -10 15 -17 62 -46 61
-35 19 -115 -149 -283 -460 -374 -710 -207 -68 46 -70 45 -21 -17 58 -73 176
-149 283 -183 27 -8 87 -17 134 -21 168 -12 333 47 459 164 57 53 83 83 146
172 2 2 25 -12 51 -31 26 -19 54 -38 61 -42 9 -6 12 42 12 223 0 214 -1 231
-17 230 -10 0 -110 -35 -223 -77z"/></g></symbol>
<symbol id="brands_adidas" viewBox="0 0 160 72" fill="none" xmlns="http://www.w3.org/2000/svg"><path d="M20 63.152L24.6384 71.1379H55.9879L43.5121 49.5761L20 63.152ZM97.414 71.1379L71.0229 25.6185L47.5108 39.0347L66.0645 71.1379H97.414ZM107.491 71.1379H139L98.2137 0.862305L74.7016 14.4383L107.491 71.1379Z" fill="#0E0E0E"/></symbol>
<symbol id="brands_asics" viewBox="0 0 160 72" fill="none" xmlns="http://www.w3.org/2000/svg"><g clip-path="url(#clip0_650_1956)"><path d="M160.305 24.6676C159.829 25.9261 159.447 27.1845 158.971 28.5169C158.876 28.8871 158.685 28.9611 158.209 28.9611C155.35 28.9611 152.491 28.9611 149.537 28.9611C148.298 28.9611 147.25 29.3312 146.678 30.2195C146.297 30.7377 146.297 31.2559 146.869 31.7C147.441 32.1442 148.012 32.5143 148.68 32.8104C149.918 33.4026 151.157 33.8468 152.396 34.439C153.539 34.9572 154.588 35.5494 155.541 36.2896C157.256 37.5481 157.732 39.2506 157.446 41.0273C157.256 42.2857 156.684 43.4701 155.922 44.5805C154.016 47.2454 151.062 48.6519 147.25 48.7999C143.343 48.948 139.436 48.874 135.529 48.874C135.434 48.874 135.339 48.874 135.053 48.7999C135.243 48.2818 135.434 47.7636 135.529 47.3194C135.91 46.2831 136.196 45.3207 136.577 44.2844C136.673 43.9143 136.863 43.8402 137.34 43.8402C140.199 43.8402 143.057 43.8402 145.916 43.8402C146.774 43.8402 147.631 43.7662 148.489 43.6182C149.632 43.3961 150.204 42.7298 150.395 41.8415C150.585 41.1013 150.109 40.5831 149.442 40.213C148.584 39.6948 147.631 39.2506 146.678 38.8065C145.344 38.1403 143.915 37.5481 142.676 36.8818C141.056 35.9935 139.722 34.8091 139.436 33.1806C139.341 32.3663 139.341 31.552 139.531 30.8117C140.77 26.1481 145.916 24.1494 150.204 24.0754C153.444 24.0014 156.779 24.0754 160.019 24.0754C160.115 24.0754 160.21 24.0754 160.4 24.1494C160.4 24.2235 160.305 24.4455 160.305 24.6676ZM138.293 28.5169C138.197 28.813 138.007 28.8871 137.626 28.8871C135.815 28.8871 133.909 28.8871 132.099 29.0351C126.286 29.7014 121.712 33.6247 121.331 38.0662C121.045 41.3974 123.713 43.6922 128.001 43.6922C129.621 43.6922 131.241 43.6922 132.956 43.6922H133.719C133.528 44.3584 133.338 44.8766 133.147 45.3948C132.861 46.3571 132.48 47.2454 132.194 48.2077C132.099 48.5038 131.908 48.6519 131.527 48.6519C129.335 48.6519 127.048 48.7259 124.857 48.5779C118.853 48.3558 114.756 45.3948 114.184 40.9532C113.803 37.8442 114.946 34.9572 116.852 32.2922C120.187 27.6286 125.333 24.8897 132.194 24.1494C134.576 23.9274 136.959 24.0014 139.436 23.9274C139.531 23.9274 139.627 23.9274 139.722 24.0014L139.246 25.4079C138.96 26.4442 138.579 27.4806 138.293 28.5169ZM108.752 48.2818C108.657 48.6519 108.466 48.7999 107.895 48.7999C105.989 48.7999 104.178 48.7999 102.272 48.7999C102.082 48.7999 101.891 48.7999 101.605 48.7999L102.272 46.8753L109.61 25.1118C109.991 23.9274 109.991 23.9274 111.325 23.9274C112.945 23.9274 114.565 23.9274 116.09 23.9274C116.28 23.9274 116.566 23.9274 116.852 23.9274C116.376 25.4079 115.899 26.7403 115.423 28.1468C113.231 34.8831 111.039 41.5454 108.752 48.2818ZM103.225 28.4429C103.13 28.813 102.939 28.8871 102.463 28.8871C99.6042 28.8871 96.7455 28.8871 93.8867 28.8871C92.6479 28.8871 91.695 29.2572 91.1233 30.0715C90.6468 30.6637 90.7421 31.1819 91.3139 31.626C91.8856 32.0702 92.5527 32.4403 93.315 32.8104C94.6491 33.4767 96.1737 34.0689 97.5078 34.6611C98.0796 34.8831 98.556 35.1792 99.0325 35.5494C101.32 36.9559 102.368 38.8805 101.796 41.1753C101.51 42.6558 100.748 44.0623 99.6995 45.3207C97.9843 47.2454 95.5067 48.3558 92.4574 48.6519C91.1233 48.7999 89.7892 48.7999 88.4551 48.7999C85.6917 48.7999 82.9282 48.7999 80.26 48.7999C79.9742 48.7999 79.7836 48.7999 79.4024 48.7999C79.4977 48.4298 79.593 48.0597 79.6883 47.7636C80.0694 46.6532 80.4506 45.5428 80.8318 44.4324C80.9271 43.9883 81.2129 43.8402 81.88 43.8402C84.7387 43.8402 87.5975 43.8402 90.3609 43.8402C91.028 43.8402 91.7903 43.7662 92.4574 43.6922C93.315 43.5441 93.982 43.248 94.3632 42.5818C94.935 41.6195 94.8397 40.8792 93.7915 40.213C92.8385 39.6208 91.7903 39.1766 90.8374 38.6584C89.5033 37.9922 88.0739 37.4 86.7399 36.6598C84.9293 35.6234 83.7858 34.2909 83.5952 32.5143C83.4999 31.0338 83.9764 29.6273 84.9293 28.3689C86.8352 25.704 89.8845 24.3715 93.6962 24.0014C94.2679 23.9274 94.935 23.9274 95.5067 23.9274C98.3655 23.9274 101.224 23.9274 103.988 23.9274H104.655C104.274 25.1118 103.892 26.2962 103.511 27.4066C103.511 27.7767 103.321 28.0728 103.225 28.4429ZM77.1154 44.8766C76.7342 46.061 76.2578 47.2454 75.8766 48.4298C75.7813 48.7259 75.5907 48.7999 75.3048 48.7999C70.8261 48.7999 66.2521 48.7999 61.7734 48.7259C60.2488 48.7259 58.7241 48.3558 57.39 47.7636C54.436 46.5051 52.9113 43.9143 53.6736 41.1013C54.2454 38.8065 55.8653 37.1039 58.2476 35.6974C61.297 33.8468 64.8228 32.8104 68.7297 32.8845C70.3497 32.8845 71.9696 32.8845 73.4943 32.8845C73.9708 32.8845 74.2566 32.7364 74.2566 32.3663C74.3519 31.7741 74.6378 31.1819 74.7331 30.5897C74.8284 29.7014 74.1613 29.1091 73.0178 28.9611C72.5414 28.8871 72.0649 28.8871 71.5885 28.8871C68.825 28.8871 65.9663 28.8871 63.2028 28.8871H62.4405C63.0122 27.2585 63.584 25.704 64.0604 24.1494C64.0604 24.0014 64.4416 23.9274 64.6322 23.9274C67.0145 23.9274 69.4921 23.9274 71.9696 23.9274C72.8273 23.9274 73.7802 23.8533 74.7331 23.9274C77.6871 24.1494 80.0694 25.1118 81.4035 27.2585C82.2611 28.665 82.1659 30.1455 81.6894 31.626C80.1647 36.0675 78.6401 40.4351 77.1154 44.8766ZM72.1602 37.8442C70.2544 37.8442 68.3486 37.7701 66.4427 37.8442C64.1557 37.9182 61.964 39.2506 61.3923 40.8792C60.9158 42.3597 61.964 43.6182 63.8698 43.6922C65.871 43.7662 67.9674 43.6922 69.9685 43.7662C70.3497 43.7662 70.445 43.6182 70.5403 43.3961C71.112 41.6935 71.6838 39.9169 72.3508 38.2143C72.3508 38.1403 72.3508 37.9922 72.4461 37.8442C72.2555 37.8442 72.1602 37.8442 72.1602 37.8442ZM40.6187 40.9532C36.3305 45.0246 31.4706 48.6519 25.7531 51.6129C22.3226 53.3155 18.7968 54.796 14.7946 55.4622C11.9358 55.9064 9.07708 55.9804 6.31362 55.2402C2.69253 54.2038 0.500818 51.835 0.405526 48.874C0.310235 45.9129 1.54903 43.3221 3.45486 40.8052C5.83716 37.7701 8.88649 35.2533 12.4123 33.1065C16.6051 30.5156 21.0838 28.4429 26.2296 27.1845C27.8496 26.8144 29.5648 26.5183 31.3754 26.4442C32.5189 26.3702 33.7576 26.5183 34.9011 26.8144C37.474 27.4066 38.7128 29.3312 38.0458 31.3299C38.0458 31.4039 37.9505 31.552 37.9505 31.7L38.0458 31.7741C38.5222 31.3299 38.9987 30.8858 39.3799 30.3676C41.2857 28.2949 43.0009 26.1481 43.8586 23.6313C44.1444 22.743 44.4303 21.7806 44.2397 20.8923C43.8586 19.1157 42.4292 18.0793 40.3328 17.5612C38.1411 16.8209 35.9494 16.969 33.7576 17.2651C29.5648 17.8573 25.7531 19.1157 22.0368 20.7443C20.5121 21.4105 18.9874 22.1507 17.4628 22.891L17.0816 22.4469C17.6533 22.0767 18.1298 21.7806 18.7015 21.4105C23.8473 18.3754 29.3742 16.0807 35.6635 14.8962C38.8081 14.304 41.9527 14.0079 45.0974 14.6001C49.2902 15.3404 52.0537 17.9313 52.3395 21.2624C52.5301 23.9274 51.6725 26.3702 50.3384 28.739C47.9561 33.2546 44.5256 37.252 40.6187 40.9532ZM32.5189 28.9611C31.1848 28.813 29.946 29.0351 28.6119 29.3312C23.3708 30.5897 19.178 33.1065 15.7475 36.2896C14.604 37.326 13.6511 38.5104 13.1746 39.8429C12.4123 42.0636 14.1275 43.7662 16.9863 43.7662C18.511 43.7662 19.845 43.4701 21.1791 42.9519C26.039 41.1753 30.0413 38.5104 33.5671 35.4013C34.52 34.587 35.0917 33.5507 35.4729 32.4403C36.2352 30.5156 35.0917 29.1832 32.5189 28.9611Z" fill="#0E0E0E"/></g><defs><clipPath><rect fill="white"/></clipPath></defs></symbol>
<symbol id="brands_fila" viewBox="0 0 160 72" fill="none" xmlns="http://www.w3.org/2000/svg"><path fill-rule="evenodd" clip-rule="evenodd" d="M58.7626 9C54.6648 9 51.3422 12.3019 51.3422 16.3723V54.2708C51.3422 58.343 54.6648 61.6431 58.7626 61.6431C62.8604 61.6431 66.1813 58.343 66.1813 54.2708V16.3723C66.1813 12.3037 62.8604 9 58.7626 9Z" fill="#0E0E0E"/><path fill-rule="evenodd" clip-rule="evenodd" d="M39.7689 9.51587H7.41689C3.32089 9.51587 0 12.8178 0 16.8899C0 20.9603 3.32089 24.2622 7.41867 24.2622H39.7689C43.8667 24.2622 47.1893 20.9603 47.1893 16.8899C47.1893 12.8178 43.8667 9.51587 39.7689 9.51587Z" fill="#0E0E0E"/><path fill-rule="evenodd" clip-rule="evenodd" d="M155.84 38.7825L140.203 13.4891C138.364 10.5494 135.863 9.13073 132.702 9.13073C129.445 9.13073 126.676 10.6483 124.956 13.4891L106.852 43.3016C105.614 45.3439 104.188 46.1919 101.831 46.1919H88.3733C87.2284 46.1919 86.4764 45.3545 86.4764 44.3086V16.125C86.4711 12.0634 83.1591 9 79.072 9C74.9831 9 71.6693 12.0652 71.6693 16.1267V50.6757C71.6693 55.8732 76.8356 60.9064 81.9644 60.9064H109.058C112.901 60.9064 115.481 58.1186 117.676 54.3079L131.764 30.2795C131.888 30.0145 132.119 29.6753 132.388 29.6753C132.674 29.6753 132.852 30.0163 132.996 30.2618L142.222 44.964C142.604 45.5877 142.677 45.9039 142.432 46.4586C142.213 46.9657 141.714 47.0734 140.9 47.0734H127.948C124.103 47.0734 120.987 50.1686 120.987 53.9899C120.987 57.8095 124.103 60.9064 127.948 60.9064H149.077C154.208 60.9064 160 56.0428 160 49.6916C160 45.6654 159.22 44.2468 155.84 38.7825ZM36.2062 28.3909H7.41867C3.32089 28.3909 0 31.6928 0 35.765V53.755C0 57.8271 3.32089 61.1273 7.41867 61.1273C11.5164 61.1273 14.8391 57.8271 14.8391 53.755V45.3492C14.8391 44.1284 15.8347 43.1373 17.0649 43.1373H36.2062C40.304 43.1373 43.6267 39.8354 43.6267 35.765C43.6267 31.6928 40.304 28.3909 36.2062 28.3909Z" fill="#0E0E0E"/></symbol>
<symbol id="brands_newBalance" viewBox="0 0 160 72" fill="none" xmlns="http://www.w3.org/2000/svg"><path d="M81.0486 25.4299L87.9934 13.3499L111.578 11.8398L112.403 10.3642L90.6062 8.85415L95.7289 0.0343184H136.16C148.605 0.0343184 157.785 4.49571 154.209 17.5024C153.143 21.4833 148.09 31.4357 133.237 35.5882C136.4 35.9657 144.239 39.4318 142.864 48.4233C140.457 64.3813 119.795 71.9657 108.278 71.9657L60.5237 72L58.1515 62.7683L83.1802 61.0181L84.0397 59.5424L56.8794 57.8951L53.9571 46.9476L92.5659 44.6826L93.4254 43.2412L24.0809 38.9171L27.4158 33.1516L102.089 28.3127L102.949 26.8713L81.0486 25.4299ZM112.3 27.8322L119.176 27.7979C123.783 27.7636 128.562 25.6702 130.315 21.449C131.931 17.5024 129.765 14.1392 126.877 14.1735H120.207L112.3 27.8322ZM104.358 41.5253L96.0727 55.9047H103.98C107.659 55.9047 114.225 54.0858 116.254 48.8694C118.145 43.9962 114.672 41.5253 112.266 41.5253H104.358ZM44.1245 63.7293L39.3113 71.9314L5 72L8.33486 66.2345L44.1245 63.7293ZM46.5311 0L74.1382 0.0343184L76.2354 7.82459L43.265 5.76549L46.5311 0ZM77.7825 14.0019L80.8079 25.4299L33.6729 22.3413L36.9734 16.6101L77.7825 14.0019ZM53.7852 46.9476L47.8031 57.3117L14.5576 55.4242L17.8925 49.6587L53.7852 46.9476Z" fill="#0E0E0E"/></symbol>
<symbol id="brands_nike" viewBox="0 0 160 72" fill="none" xmlns="http://www.w3.org/2000/svg"><path fill-rule="evenodd" clip-rule="evenodd" d="M143.893 8L50.277 57.7537C42.483 61.9273 35.915 64.0141 30.6606 64.0141C24.7056 64.0141 20.4145 61.3782 17.6997 56.1063C14.2843 49.2967 15.7731 38.4234 21.6405 26.891C25.1434 20.1913 29.6097 14.0407 33.9883 8.10983C32.9375 10.1966 23.9174 29.0877 33.8132 37.984C35.7398 39.7413 38.5422 40.62 41.9575 40.62C44.6723 40.62 47.8249 40.0708 51.3279 38.9725L143.893 8Z" fill="#0E0E0E"/></symbol>
<symbol id="brands_puma" viewBox="0 0 160 72" fill="none" xmlns="http://www.w3.org/2000/svg"><path d="M41.8533 0.59003C41.2678 0.719612 40.6823 2.79292 39.4462 4.02394C38.6005 4.80143 37.5596 4.80143 36.9741 5.7733C36.7138 6.09725 36.8439 6.80995 36.5837 7.39307C36.1283 8.68888 34.4369 8.81846 34.4369 10.1143C34.4369 11.5397 35.8681 11.8636 37.0391 12.9651C38.015 13.8074 38.1451 14.3905 39.186 14.7144C40.1618 15.0384 41.593 14.0017 42.8942 14.3905C44.0001 14.7144 45.041 14.9736 45.3012 16.0102C45.5615 17.0469 45.3012 18.6019 44.0001 18.3427C43.5447 18.3427 41.593 17.63 39.3161 17.8892C36.4536 18.2131 33.2008 19.0554 33.0056 22.2302C32.8755 23.9795 35.0224 25.988 37.0391 25.6641C38.4703 25.4049 37.7547 23.6556 38.6005 22.8133C39.7064 21.7766 45.4964 26.4416 51.0262 26.4416C53.3031 26.4416 55.0596 25.8584 56.7511 24.1091C56.8812 23.9795 57.1414 23.6556 57.3366 23.6556C57.5968 23.6556 57.9221 23.9147 58.0522 23.9795C62.476 27.4782 65.7939 34.4756 81.9278 34.5404C84.2048 34.5404 86.807 35.5771 88.9539 37.456C90.8405 39.2054 91.9464 41.9266 92.9873 44.6478C94.6788 48.7944 97.5413 52.7466 101.965 57.0876C102.225 57.3468 105.803 60.1328 106.129 60.2624C106.129 60.2624 106.519 60.9751 106.389 61.299C106.259 64.0202 105.934 71.6656 111.789 71.9895C113.22 72.1191 112.895 71.0176 112.895 70.3697C112.895 69.0739 112.634 67.6485 113.35 66.3527C114.326 64.4738 111.333 63.6315 111.333 59.5497C111.463 56.5045 108.796 56.958 107.495 54.7551C106.779 53.4593 106.064 52.6171 106.064 50.9973C106.324 41.7322 104.047 35.5771 102.941 34.1517C102.095 32.9854 101.249 32.5967 102.095 32.0136C106.974 28.8388 108.08 25.9232 108.08 25.9232C110.683 19.8977 112.96 14.3905 116.212 12.058C116.798 11.6045 118.489 10.3087 119.53 9.85512C122.523 8.42972 124.084 7.65223 124.93 6.80995C126.231 5.51413 127.467 2.66334 126.101 1.04357C124.409 -1.09453 121.677 0.59003 120.376 1.36752C111.398 6.68037 110.097 15.8159 106.974 21.1287C104.437 25.3401 100.534 28.5149 96.9558 28.774C94.2234 29.0332 91.361 28.4501 88.4985 27.1543C81.4724 24.1091 77.6341 20.2216 76.6583 19.5089C74.8367 18.0836 60.2641 3.89436 48.2938 3.24645C48.2938 3.24645 46.8626 0.330867 46.4722 0.330867C45.6265 0.201285 44.6507 2.08022 44.0652 2.33938C43.4146 2.66334 42.4388 0.460449 41.8533 0.59003Z" fill="#0E0E0E"/></symbol>
<symbol id="cardComponent_starDefault" viewBox="0 0 14 15" xmlns="http://www.w3.org/2000/svg"><path fill="currentColor" stroke="#586994" stroke-width="1" d="M7 1.26074C7.07593 1.26079 7.20969 1.29073 7.47168 1.63281C7.60296 1.80423 7.74257 2.02231 7.90332 2.29395L8.46094 3.27637L8.67969 3.66797C8.8707 4.01073 9.02676 4.30725 9.25684 4.52344L9.36035 4.61035C9.58031 4.77767 9.83943 4.85989 10.1338 4.93066L10.4395 5L10.8633 5.09668C11.7002 5.28617 12.2693 5.41666 12.6592 5.57031C12.9451 5.683 13.062 5.77995 13.1152 5.86328L13.1514 5.94141C13.1834 6.04501 13.1843 6.20436 12.957 6.56543C12.8416 6.74888 12.6858 6.95463 12.4883 7.19824L11.7666 8.05566L11.4775 8.39355C11.224 8.69029 11.0031 8.93699 10.8789 9.22852L10.832 9.35645V9.35742C10.7509 9.61896 10.7552 9.89091 10.7812 10.2021L10.8125 10.5273L10.8564 10.9785C10.9423 11.8668 11.0001 12.4784 10.9805 12.9189C10.9658 13.2487 10.9097 13.3993 10.8516 13.4775L10.7939 13.5361C10.7284 13.5859 10.607 13.6406 10.2119 13.5273C10.011 13.4697 9.77669 13.3803 9.49512 13.2598L8.49219 12.8076V12.8066L8.09375 12.624H8.09277C7.69863 12.442 7.36601 12.2774 7 12.2773C6.72513 12.2773 6.46881 12.3699 6.19141 12.4932L5.90527 12.624L5.50879 12.8066L5.50781 12.8076C4.72447 13.1682 4.19001 13.4121 3.78809 13.5273C3.49088 13.6125 3.34865 13.6024 3.26855 13.5713L3.20605 13.5361C3.1319 13.4798 3.03919 13.3582 3.01953 12.9189C3.00968 12.6986 3.01921 12.4354 3.04199 12.1162L3.14355 10.9785L3.1875 10.5283V10.5273C3.22592 10.1304 3.26529 9.79865 3.20117 9.48828L3.16699 9.35645C3.08558 9.09354 2.9266 8.87418 2.73047 8.63867L2.52246 8.39453L2.2334 8.05566L1.51074 7.19824C1.31342 6.95494 1.15835 6.74873 1.04297 6.56543C0.872265 6.29419 0.829705 6.13687 0.833008 6.03125L0.848633 5.94141C0.879362 5.84272 0.960262 5.71935 1.34082 5.56934C1.53577 5.49252 1.77571 5.42209 2.07129 5.34668L3.13672 5.09668L3.56055 5C3.93104 4.91625 4.25386 4.85153 4.52539 4.6875L4.63867 4.61133L4.63965 4.61035C4.92888 4.39013 5.10216 4.05944 5.32031 3.66797L5.31934 3.66699L5.53809 3.27637C5.96848 2.50457 6.2649 1.97557 6.52734 1.63281C6.78956 1.29043 6.92409 1.26074 7 1.26074Z"/></symbol>
<symbol id="footer_facebook" viewBox="0 0 24 24" fill="none" xmlns="http://www.w3.org/2000/svg"><mask style="mask-type:alpha" maskUnits="userSpaceOnUse" x="0" y="0"><rect fill="#D9D9D9"/></mask><g mask="url(#mask0_988_3957)"><path d="M9.014 5.865V8.613H7V11.973H9.014V21.959H13.148V11.974H15.923C15.923 11.974 16.183 10.363 16.309 8.601H13.165V6.303C13.165 5.96 13.615 5.498 14.061 5.498H16.315V2H13.251C8.911 2 9.014 5.363 9.014 5.865Z" fill="currentColor"/></g></symbol>
<symbol id="footer_instagram" viewBox="0 0 24 24" fill="none" xmlns="http://www.w3.org/2000/svg"><mask style="mask-type:alpha" maskUnits="userSpaceOnUse" x="0" y="0"><rect fill="#D9D9D9"/></mask><g mask="url(#mask0_988_3951)"><path d="M16.017 2H7.947C6.37015 2.00185 4.85844 2.62914 3.74353 3.74424C2.62862 4.85933 2.00159 6.37115 2 7.948V16.018C2.00185 17.5948 2.62914 19.1066 3.74424 20.2215C4.85933 21.3364 6.37115 21.9634 7.948 21.965H16.018C17.5948 21.9631 19.1066 21.3359 20.2215 20.2208C21.3364 19.1057 21.9634 17.5938 21.965 16.017V7.947C21.9631 6.37015 21.3359 4.85844 20.2208 3.74353C19.1057 2.62862 17.5938 2.00159 16.017 2ZM19.957 16.017C19.957 16.5344 19.8551 17.0468 19.6571 17.5248C19.4591 18.0028 19.1689 18.4371 18.803 18.803C18.4371 19.1689 18.0028 19.4591 17.5248 19.6571C17.0468 19.8551 16.5344 19.957 16.017 19.957H7.947C6.90222 19.9567 5.90032 19.5415 5.16165 18.8026C4.42297 18.0638 4.008 17.0618 4.008 16.017V7.947C4.00827 6.90222 4.42349 5.90032 5.16235 5.16165C5.90122 4.42297 6.90322 4.008 7.948 4.008H16.018C17.0628 4.00827 18.0647 4.42349 18.8034 5.16235C19.542 5.90122 19.957 6.90322 19.957 7.948V16.017Z" fill="currentColor"/><path d="M11.982 6.819C10.6134 6.82112 9.30153 7.36579 8.3339 8.33361C7.36627 9.30143 6.82185 10.6134 6.82 11.982C6.82159 13.3509 7.36602 14.6633 8.3339 15.6314C9.30178 16.5995 10.6141 17.1441 11.983 17.146C13.3521 17.1444 14.6647 16.5998 15.6327 15.6317C16.6008 14.6637 17.1454 13.3511 17.147 11.982C17.1449 10.6131 16.5999 9.30088 15.6317 8.33319C14.6634 7.3655 13.3509 6.82132 11.982 6.82V6.819ZM11.982 15.138C11.1452 15.138 10.3428 14.8056 9.75108 14.2139C9.1594 13.6222 8.827 12.8198 8.827 11.983C8.827 11.1462 9.1594 10.3438 9.75108 9.75208C10.3428 9.1604 11.1452 8.828 11.982 8.828C12.8188 8.828 13.6212 9.1604 14.2129 9.75208C14.8046 10.3438 15.137 11.1462 15.137 11.983C15.137 12.8198 14.8046 13.6222 14.2129 14.2139C13.6212 14.8056 12.8188 15.138 11.982 15.138Z" fill="currentColor"/><path d="M17.156 8.095C17.8392 8.095 18.393 7.54118 18.393 6.858C18.393 6.17482 17.8392 5.621 17.156 5.621C16.4728 5.621 15.919 6.17482 15.919 6.858C15.919 7.54118 16.4728 8.095 17.156 8.095Z" fill="currentColor"/></g></symbol>
<symbol id="footer_phone" viewBox="0 0 18 18" fill="none" xmlns="http://www.w3.org/2000/svg"><path d="M16.6029 17.8545C14.7184 17.8545 12.8252 17.4163 10.9232 16.54C9.02133 15.6637 7.27391 14.4275 5.68091 12.8315C4.08808 11.2353 2.85349 9.48783 1.97716 7.58899C1.10083 5.69033 0.662659 3.79874 0.662659 1.91424C0.662659 1.61141 0.762659 1.35908 0.962659 1.15724C1.16266 0.955408 1.41266 0.854492 1.71266 0.854492H4.97416C5.22666 0.854492 5.44941 0.936909 5.64241 1.10174C5.83541 1.26641 5.95816 1.46991 6.01066 1.71224L6.58391 4.65449C6.62358 4.92749 6.61524 5.16208 6.55891 5.35824C6.50241 5.55441 6.40108 5.71916 6.25491 5.85249L3.94541 8.10074C4.31708 8.78141 4.74174 9.42533 5.21941 10.0325C5.69691 10.6395 6.21391 11.2192 6.77041 11.7717C7.31908 12.3206 7.90241 12.8302 8.52041 13.3007C9.13841 13.7712 9.80574 14.2091 10.5224 14.6142L12.7664 12.3507C12.9229 12.1879 13.1124 12.0737 13.3349 12.0082C13.5572 11.9429 13.7883 11.9269 14.0282 11.9602L16.8049 12.5257C17.0574 12.5924 17.2635 12.7212 17.4232 12.9122C17.5828 13.1032 17.6627 13.3199 17.6627 13.5622V16.8045C17.6627 17.1045 17.5617 17.3545 17.3599 17.5545C17.1581 17.7545 16.9057 17.8545 16.6029 17.8545ZM3.23566 6.68149L5.02041 4.97374C5.05241 4.94808 5.07324 4.91283 5.08291 4.86799C5.09258 4.82316 5.09099 4.78149 5.07816 4.74299L4.64341 2.50824C4.63058 2.45708 4.60816 2.41866 4.57616 2.39299C4.54416 2.36732 4.50249 2.35449 4.45116 2.35449H2.31266C2.27416 2.35449 2.24208 2.36732 2.21641 2.39299C2.19091 2.41866 2.17816 2.45074 2.17816 2.48924C2.22933 3.17258 2.34116 3.86674 2.51366 4.57174C2.68599 5.27691 2.92666 5.98016 3.23566 6.68149ZM11.9357 15.3237C12.5985 15.6327 13.2898 15.869 14.0097 16.0325C14.7297 16.1958 15.4024 16.2929 16.0279 16.3237C16.0664 16.3237 16.0985 16.3109 16.1242 16.2852C16.1498 16.2596 16.1627 16.2275 16.1627 16.189V14.0852C16.1627 14.0339 16.1498 13.9922 16.1242 13.9602C16.0985 13.9282 16.0601 13.9058 16.0089 13.893L13.9089 13.466C13.8704 13.4532 13.8367 13.4516 13.8079 13.4612C13.7791 13.4709 13.7486 13.4917 13.7164 13.5237L11.9357 15.3237Z" fill="#FEFEFF"/></symbol>
<symbol id="header_arrow-close" viewBox="0 0 8 13" fill="none" xmlns="http://www.w3.org/2000/svg"><path d="M5.14679 6.50003L0.346191 1.69943L1.44589 0.599731L7.34619 6.50003L1.44589 12.4003L0.346191 11.3006L5.14679 6.50003Z" fill="#636F7B"/></symbol>
<symbol id="header_arrow-open" viewBox="0 0 12 8" fill="none" xmlns="http://www.w3.org/2000/svg"><path d="M6.00009 5.64679L10.8007 0.846191L11.9004 1.94589L6.00009 7.84619L0.0997944 1.94589L1.1995 0.846191L6.00009 5.64679Z" fill="#636F7B"/></symbol>
<symbol id="header_burger-close" viewBox="0 0 20 20" fill="none" xmlns="http://www.w3.org/2000/svg"><path d="M1.60016 19.9807L0.0195312 18.4L8.41953 10L0.0195312 1.60004L1.60016 0.0194092L10.0002 8.41941L18.4002 0.0194092L19.9808 1.60004L11.5808 10L19.9808 18.4L18.4002 19.9807L10.0002 11.5807L1.60016 19.9807Z" fill="currentColor"/></symbol>
<symbol id="header_burger" xmlns="http://www.w3.org/2000/svg" viewBox="0 0 20 20" fill="none" stroke="currentColor"><path stroke-linecap="round" stroke-linejoin="round" stroke-width="2" d="M4 6h16M4 12h16M4 18h16"/></symbol>
<symbol id="header_cart" viewBox="0 0 36 36" fill="none" xmlns="http://www.w3.org/2000/svg"><mask maskUnits="userSpaceOnUse" x="0" y="0"><rect fill="#D9D9D9"/></mask><g mask="url(#mask0_562_2326)"><path d="M9.46163 32.25C8.70387 32.25 8.0625 31.9875 7.5375 31.4625C7.0125 30.9375 6.75 30.2961 6.75 29.5384V12.4616C6.75 11.7039 7.0125 11.0625 7.5375 10.5375C8.0625 10.0125 8.70387 9.75 9.46163 9.75H12.375V9.375C12.375 7.82125 12.924 6.49525 14.022 5.397C15.1203 4.299 16.4462 3.75 18 3.75C19.5538 3.75 20.8798 4.299 21.978 5.397C23.076 6.49525 23.625 7.82125 23.625 9.375V9.75H26.5384C27.2961 9.75 27.9375 10.0125 28.4625 10.5375C28.9875 11.0625 29.25 11.7039 29.25 12.4616V29.5384C29.25 30.2961 28.9875 30.9375 28.4625 31.4625C27.9375 31.9875 27.2961 32.25 26.5384 32.25H9.46163ZM9.46163 30H26.5384C26.6539 30 26.7596 29.9519 26.8556 29.8556C26.9519 29.7596 27 29.6539 27 29.5384V12.4616C27 12.3461 26.9519 12.2404 26.8556 12.1444C26.7596 12.0481 26.6539 12 26.5384 12H23.625V15.375C23.625 15.6943 23.5173 15.9615 23.3018 16.1768C23.0865 16.3923 22.8193 16.5 22.5 16.5C22.1807 16.5 21.9135 16.3923 21.6982 16.1768C21.4827 15.9615 21.375 15.6943 21.375 15.375V12H14.625V15.375C14.625 15.6943 14.5173 15.9615 14.3018 16.1768C14.0865 16.3923 13.8193 16.5 13.5 16.5C13.1807 16.5 12.9135 16.3923 12.6982 16.1768C12.4827 15.9615 12.375 15.6943 12.375 15.375V12H9.46163C9.34612 12 9.24038 12.0481 9.14438 12.1444C9.04813 12.2404 9 12.3461 9 12.4616V29.5384C9 29.6539 9.04813 29.7596 9.14438 29.8556C9.24038 29.9519 9.34612 30 9.46163 30ZM14.625 9.75H21.375V9.375C21.375 8.43475 21.0476 7.63713 20.3929 6.98213C19.7381 6.32738 18.9405 6 18 6C17.0595 6 16.2619 6.32738 15.6071 6.98213C14.9524 7.63713 14.625 8.43475 14.625 9.375V9.75Z" fill="#636F7B"/></g></symbol>
<symbol id="header_heart" viewBox="0 0 36 36" fill="none" xmlns="http://www.w3.org/2000/svg"><mask maskUnits="userSpaceOnUse" x="0" y="0"><rect fill="#D9D9D9"/></mask><g mask="url(#mask0_562_2327)"><path d="M18 30.49L16.3444 29.0016C13.8579 26.7459 11.8016 24.8075 10.1756 23.1865C8.54962 21.5652 7.26113 20.1224 6.31013 18.8579C5.35913 17.5936 4.69475 16.4402 4.317 15.3977C3.939 14.3555 3.75 13.2979 3.75 12.2249C3.75 10.0961 4.46775 8.31385 5.90325 6.8781C7.339 5.4426 9.12125 4.72485 11.25 4.72485C12.5595 4.72485 13.797 5.0311 14.9625 5.6436C16.128 6.2561 17.1405 7.13448 18 8.27873C18.8595 7.13448 19.872 6.2561 21.0375 5.6436C22.203 5.0311 23.4405 4.72485 24.75 4.72485C26.8787 4.72485 28.661 5.4426 30.0968 6.8781C31.5323 8.31385 32.25 10.0961 32.25 12.2249C32.25 13.2979 32.061 14.3555 31.683 15.3977C31.3053 16.4402 30.6409 17.5936 29.6899 18.8579C28.7389 20.1224 27.4528 21.5652 25.8315 23.1865C24.2105 24.8075 22.1519 26.7459 19.6556 29.0016L18 30.49ZM18 27.4499C20.4 25.2904 22.375 23.4394 23.925 21.8969C25.475 20.3546 26.7 19.0147 27.6 17.8772C28.5 16.7397 29.125 15.7296 29.475 14.8469C29.825 13.9644 30 13.0904 30 12.2249C30 10.7249 29.5 9.47485 28.5 8.47485C27.5 7.47485 26.25 6.97485 24.75 6.97485C23.5655 6.97485 22.4708 7.31085 21.4657 7.98285C20.461 8.6551 19.6654 9.59023 19.0789 10.7882H16.9211C16.3249 9.58048 15.5268 8.64298 14.5268 7.97573C13.5268 7.30848 12.4345 6.97485 11.25 6.97485C9.7595 6.97485 8.51188 7.47485 7.50712 8.47485C6.50237 9.47485 6 10.7249 6 12.2249C6 13.0904 6.175 13.9644 6.525 14.8469C6.875 15.7296 7.5 16.7397 8.4 17.8772C9.3 19.0147 10.525 20.3522 12.075 21.8897C13.625 23.4272 15.6 25.2806 18 27.4499Z" fill="#636F7B"/></g></symbol>
<symbol id="header_profile" viewBox="0 0 36 36" fill="none" xmlns="http://www.w3.org/2000/svg"><mask maskUnits="userSpaceOnUse" x="0" y="0"><rect fill="#D9D9D9"/></mask><g mask="url(#mask0_562_2319)"><path d="M18 16.0638C16.4089 16.0638 15.0469 15.4976 13.9138 14.3653C12.7808 13.233 12.2143 11.8719 12.2143 10.2819C12.2143 8.69186 12.7808 7.33071 13.9138 6.19843C15.0469 5.06614 16.4089 4.5 18 4.5C19.5911 4.5 20.9531 5.06614 22.0862 6.19843C23.2192 7.33071 23.7857 8.69186 23.7857 10.2819C23.7857 11.8719 23.2192 13.233 22.0862 14.3653C20.9531 15.4976 19.5911 16.0638 18 16.0638ZM4.5 30V26.8272C4.5 26.0315 4.73175 25.2871 5.19525 24.5939C5.65907 23.9011 6.2828 23.363 7.06645 22.9798C8.88637 22.1077 10.7074 21.4536 12.5296 21.0174C14.3518 20.5815 16.1753 20.3635 18 20.3635C19.8247 20.3635 21.6482 20.5815 23.4704 21.0174C25.2926 21.4536 27.1136 22.1077 28.9336 22.9798C29.7172 23.363 30.3409 23.9011 30.8048 24.5939C31.2683 25.2871 31.5 26.0315 31.5 26.8272V30H4.5ZM6.42857 28.0727H29.5714V26.8272C29.5714 26.3997 29.4335 25.9981 29.1577 25.6226C28.8823 25.2471 28.5009 24.9296 28.0136 24.6701C26.4264 23.9017 24.7899 23.3131 23.104 22.9042C21.4181 22.4953 19.7168 22.2908 18 22.2908C16.2832 22.2908 14.5819 22.4953 12.896 22.9042C11.2101 23.3131 9.57359 23.9017 7.98637 24.6701C7.49909 24.9296 7.11771 25.2471 6.84225 25.6226C6.56646 25.9981 6.42857 26.3997 6.42857 26.8272V28.0727ZM18 14.1365C19.0607 14.1365 19.9688 13.759 20.7241 13.0042C21.4795 12.2493 21.8571 11.3419 21.8571 10.2819C21.8571 9.22187 21.4795 8.31443 20.7241 7.55958C19.9688 6.80472 19.0607 6.42729 18 6.42729C16.9393 6.42729 16.0312 6.80472 15.2759 7.55958C14.5205 8.31443 14.1429 9.22187 14.1429 10.2819C14.1429 11.3419 14.5205 12.2493 15.2759 13.0042C16.0312 13.759 16.9393 14.1365 18 14.1365Z" fill="#636F7B"/></g></symbol>
<symbol id="header_search" viewBox="0 0 36 36" fill="none" xmlns="http://www.w3.org/2000/svg"><mask maskUnits="userSpaceOnUse" x="0" y="0"><rect fill="#D9D9D9"/></mask><g mask="url(#mask0_562_2323)"><path d="M29.3138 30.8655L19.8927 21.444C19.1427 22.0633 18.2802 22.5479 17.3052 22.8979C16.3302 23.2479 15.3216 23.4229 14.2793 23.4229C11.7156 23.4229 9.54582 22.5353 7.77007 20.76C5.99432 18.9848 5.10645 16.8155 5.10645 14.2523C5.10645 11.6893 5.99407 9.51927 7.76932 7.74227C9.54457 5.96552 11.7138 5.07715 14.2771 5.07715C16.8401 5.07715 19.0101 5.96502 20.7871 7.74077C22.5638 9.51652 23.4522 11.6863 23.4522 14.25C23.4522 15.3213 23.2724 16.3444 22.9129 17.3194C22.5532 18.2944 22.0733 19.1424 21.4733 19.8634L30.8944 29.2845L29.3138 30.8655ZM14.2793 21.1733C16.2121 21.1733 17.8491 20.5025 19.1903 19.161C20.5318 17.8198 21.2026 16.1828 21.2026 14.25C21.2026 12.3173 20.5318 10.6803 19.1903 9.33902C17.8491 7.99752 16.2121 7.32677 14.2793 7.32677C12.3466 7.32677 10.7096 7.99752 9.36832 9.33902C8.02682 10.6803 7.35607 12.3173 7.35607 14.25C7.35607 16.1828 8.02682 17.8198 9.36832 19.161C10.7096 20.5025 12.3466 21.1733 14.2793 21.1733Z" fill="#636F7B"/></g></symbol>
<symbol id="like-button" viewBox="0 0 24 25" fill="none" xmlns="http://www.w3.org/2000/svg"><mask style="mask-type:alpha" maskUnits="userSpaceOnUse" x="0" y="0"><rect y="0.854492" fill="#currentColor"/></mask><g mask="url(#mask0_1522_139)"><path d="M12 21.1811L10.8963 20.1889C9.23858 18.6851 7.86775 17.3928 6.78375 16.3121C5.69975 15.2313 4.84075 14.2694 4.20675 13.4264C3.57275 12.5836 3.12983 11.8146 2.878 11.1196C2.626 10.4248 2.5 9.71973 2.5 9.00439C2.5 7.58523 2.9785 6.39706 3.9355 5.43989C4.89267 4.48289 6.08083 4.00439 7.5 4.00439C8.373 4.00439 9.198 4.20856 9.975 4.61689C10.752 5.02523 11.427 5.61081 12 6.37365C12.573 5.61081 13.248 5.02523 14.025 4.61689C14.802 4.20856 15.627 4.00439 16.5 4.00439C17.9192 4.00439 19.1073 4.48289 20.0645 5.43989C21.0215 6.39706 21.5 7.58523 21.5 9.00439C21.5 9.71973 21.374 10.4248 21.122 11.1196C20.8702 11.8146 20.4272 12.5836 19.7932 13.4264C19.1592 14.2694 18.3018 15.2313 17.221 16.3121C16.1403 17.3928 14.7679 18.6851 13.1038 20.1889L12 21.1811ZM12 19.1544C13.6 17.7147 14.9167 16.4807 15.95 15.4524C16.9833 14.4242 17.8 13.531 18.4 12.7726C19 12.0143 19.4167 11.3409 19.65 10.7524C19.8833 10.1641 20 9.58139 20 9.00439C20 8.00439 19.6667 7.17106 19 6.50439C18.3333 5.83773 17.5 5.50439 16.5 5.50439C15.7103 5.50439 14.9805 5.72839 14.3105 6.17639C13.6407 6.62456 13.1102 7.24798 12.7192 8.04664H11.2808C10.8833 7.24148 10.3512 6.61648 9.6845 6.17164C9.01783 5.72681 8.28967 5.50439 7.5 5.50439C6.50633 5.50439 5.67458 5.83773 5.00475 6.50439C4.33492 7.17106 4 8.00439 4 9.00439C4 9.58139 4.11667 10.1641 4.35 10.7524C4.58333 11.3409 5 12.0143 5.6 12.7726C6.2 13.531 7.01667 14.4226 8.05 15.4476C9.08333 16.4726 10.4 17.7082 12 19.1544Z" fill="currentColor"/></g></symbol>
<symbol id="like" viewBox="0 0 20 18" fill="none" xmlns="http://www.w3.org/2000/svg"><path d="M10 17.3268L8.89625 16.3345C7.23858 14.8307 5.86775 13.5384 4.78375 12.4578C3.69975 11.3769 2.84075 10.415 2.20675 9.57202C1.57275 8.72919 1.12983 7.96027 0.878 7.26527C0.626 6.57044 0.5 5.86536 0.5 5.15002C0.5 3.73086 0.9785 2.54269 1.9355 1.58552C2.89267 0.628524 4.08083 0.150024 5.5 0.150024C6.373 0.150024 7.198 0.354191 7.975 0.762524C8.752 1.17086 9.427 1.75644 10 2.51927C10.573 1.75644 11.248 1.17086 12.025 0.762524C12.802 0.354191 13.627 0.150024 14.5 0.150024C15.9192 0.150024 17.1073 0.628524 18.0645 1.58552C19.0215 2.54269 19.5 3.73086 19.5 5.15002C19.5 5.86536 19.374 6.57044 19.122 7.26527C18.8702 7.96027 18.4272 8.72919 17.7932 9.57202C17.1592 10.415 16.3018 11.3769 15.221 12.4578C14.1403 13.5384 12.7679 14.8307 11.1038 16.3345L10 17.3268Z" fill="currentColor"/></symbol>
<symbol id="logo" viewBox="0 0 73 42" fill="none" xmlns="http://www.w3.org/2000/svg"><path d="M30.2789 3.31241L26.0996 12.408C26.0996 12.408 23.7938 10.8199 21.0556 10.9643C18.3174 11.1087 16.0116 12.408 16.0116 12.408C10.2471 15.7287 10.5353 23.8137 13.1293 26.7012C16.0116 31.4367 24.6585 31.3212 27.6848 28.4337V25.5462H19.7586L23.7938 15.873H32.1524C36.9946 -0.181479 53.4813 -0.58573 61.8399 3.31241C75.7952 10.9643 73.5131 25.6906 68.1809 33.3424C56.767 45.239 42.6727 41.4274 36.3317 34.3531C25.379 44.0262 16.7322 40.7056 9.5265 37.2406C-2.00262 30.6571 -0.792075 14.4004 6.93245 6.77742C14.657 -0.845594 23.9379 0.280526 30.2789 3.31241Z" fill="#445D9C" stroke="#FEFEFF"/><path d="M68.053 17.2497C68.6694 17.2497 69.2183 17.375 69.6998 17.6257C70.1813 17.868 70.5569 18.2065 70.8266 18.641C71.0962 19.0671 71.2311 19.5476 71.2311 20.0824V20.2453C71.2311 20.7801 71.0962 21.2647 70.8266 21.6992C70.5569 22.1337 70.1813 22.4763 69.6998 22.727C69.2183 22.9693 68.6694 23.0905 68.053 23.0905H65.6694V25.873H62.4769V17.2497H68.053ZM65.6694 21.0725H66.984C67.3211 21.0725 67.5715 20.9973 67.7352 20.8469C67.9085 20.6965 67.9952 20.4918 67.9952 20.2328V20.1325C67.9952 19.8651 67.9085 19.6604 67.7352 19.5183C67.5715 19.3679 67.3211 19.2927 66.984 19.2927H65.6694V21.0725Z" fill="#FEFEFF"/><path d="M55.3851 17.0994C57.0994 17.0994 58.4236 17.4796 59.3577 18.2399C60.2919 19.0003 60.759 20.1075 60.759 21.5614C60.759 23.0153 60.2919 24.1225 59.3577 24.8829C58.4236 25.6432 57.0994 26.0234 55.3851 26.0234C53.6709 26.0234 52.3467 25.6474 51.4125 24.8954C50.488 24.135 50.0258 23.0237 50.0258 21.5614C50.0258 20.0991 50.488 18.992 51.4125 18.2399C52.3467 17.4796 53.6709 17.0994 55.3851 17.0994ZM55.3851 19.1674C54.7014 19.1674 54.1813 19.3471 53.825 19.7064C53.4687 20.0657 53.2905 20.5503 53.2905 21.1603V21.9625C53.2905 22.5725 53.4687 23.0571 53.825 23.4164C54.1813 23.7757 54.7014 23.9554 55.3851 23.9554C56.0689 23.9554 56.589 23.7757 56.9453 23.4164C57.3112 23.0571 57.4942 22.5725 57.4942 21.9625V21.1603C57.4942 20.5503 57.3112 20.0657 56.9453 19.7064C56.589 19.3471 56.0689 19.1674 55.3851 19.1674Z" fill="#FEFEFF"/><path d="M45.1124 25.873V22.6016H41.6021V25.873H38.4095V17.2497H41.6021V20.3957H45.1124V17.2497H48.3049V25.873H45.1124Z" fill="#FEFEFF"/><path d="M32.1598 17.0994C33.431 17.0994 34.4759 17.325 35.2945 17.7762C36.1131 18.2191 36.532 18.8792 36.5513 19.7565V19.9069H33.561V19.8568C33.561 19.6061 33.4551 19.3972 33.2432 19.2301C33.0313 19.063 32.7087 18.9794 32.2753 18.9794C31.8516 18.9794 31.5241 19.0337 31.293 19.1424C31.0715 19.251 30.9608 19.3847 30.9608 19.5435C30.9608 19.7691 31.1148 19.9362 31.423 20.0448C31.7312 20.1534 32.2272 20.2662 32.9109 20.3832C33.7103 20.5253 34.3651 20.6757 34.8756 20.8344C35.3956 20.9848 35.8482 21.2355 36.2335 21.5865C36.6187 21.9374 36.8161 22.4137 36.8257 23.0153C36.8257 24.0347 36.4261 24.7909 35.6267 25.2839C34.837 25.7769 33.7777 26.0234 32.4487 26.0234C30.8982 26.0234 29.6895 25.7978 28.8228 25.3466C27.9657 24.8954 27.5371 24.0974 27.5371 22.9527H30.5563C30.5563 23.3872 30.6863 23.6796 30.9463 23.83C31.2063 23.9721 31.6108 24.0431 32.1598 24.0431C32.5642 24.0431 32.8965 24.0055 33.1565 23.9303C33.4262 23.8551 33.561 23.7005 33.561 23.4665C33.561 23.2576 33.4117 23.1031 33.1132 23.0028C32.8243 22.8942 32.3476 22.7814 31.683 22.6644C30.8741 22.514 30.2048 22.3594 29.6751 22.2006C29.1454 22.0335 28.6831 21.7619 28.2883 21.3859C27.8934 21.0099 27.696 20.5002 27.696 19.8568C27.696 18.9126 28.1149 18.2191 28.9528 17.7762C29.8003 17.325 30.8693 17.0994 32.1598 17.0994Z" fill="#FEFEFF"/></symbol>
<symbol id="product_deliveryProduct" viewBox="0 0 23 16" fill="none" xmlns="http://www.w3.org/2000/svg"><path d="M5.344 15.5577C4.56334 15.5577 3.90059 15.2847 3.35575 14.7387C2.81092 14.1927 2.5385 13.5298 2.5385 12.75H0.846252V2.30775C0.846252 1.80258 1.02125 1.375 1.37125 1.025C1.72125 0.675 2.14875 0.5 2.65375 0.5H16.2693V4.30775H18.923L22.1538 8.63475V12.75H20.3463C20.3463 13.5298 20.073 14.1927 19.5265 14.7387C18.9802 15.2847 18.3168 15.5577 17.5363 15.5577C16.7558 15.5577 16.093 15.2847 15.548 14.7387C15.0032 14.1927 14.7308 13.5298 14.7308 12.75H8.15375C8.15375 13.532 7.88059 14.1954 7.33425 14.7402C6.78792 15.2852 6.1245 15.5577 5.344 15.5577ZM5.34625 14.0577C5.71292 14.0577 6.0225 13.9314 6.275 13.6788C6.5275 13.4263 6.65375 13.1167 6.65375 12.75C6.65375 12.3833 6.5275 12.0737 6.275 11.821C6.0225 11.5685 5.71292 11.4423 5.34625 11.4423C4.97959 11.4423 4.66992 11.5685 4.41725 11.821C4.16475 12.0737 4.0385 12.3833 4.0385 12.75C4.0385 13.1167 4.16475 13.4263 4.41725 13.6788C4.66992 13.9314 4.97959 14.0577 5.34625 14.0577ZM2.34625 11.25H3.06925C3.28209 10.8795 3.58942 10.5689 3.99125 10.3183C4.39325 10.0676 4.84492 9.94225 5.34625 9.94225C5.83459 9.94225 6.28292 10.066 6.69125 10.3135C7.09959 10.561 7.41017 10.8732 7.623 11.25H14.7693V2H2.65375C2.57692 2 2.50642 2.03208 2.44225 2.09625C2.37825 2.16025 2.34625 2.23075 2.34625 2.30775V11.25ZM17.5385 14.0577C17.9052 14.0577 18.2148 13.9314 18.4673 13.6788C18.7199 13.4263 18.8463 13.1167 18.8463 12.75C18.8463 12.3833 18.7199 12.0737 18.4673 11.821C18.2148 11.5685 17.9052 11.4423 17.5385 11.4423C17.1718 11.4423 16.8622 11.5685 16.6095 11.821C16.357 12.0737 16.2308 12.3833 16.2308 12.75C16.2308 13.1167 16.357 13.4263 16.6095 13.6788C16.8622 13.9314 17.1718 14.0577 17.5385 14.0577ZM16.2693 9.25H20.75L18.1538 5.80775H16.2693V9.25Z" fill="#636F7B"/></symbol>
<symbol id="product_payProduct" viewBox="0 0 18 18" fill="none" xmlns="http://www.w3.org/2000/svg"><path d="M1.80775 17.5C1.30908 17.5 0.883083 17.3234 0.52975 16.9703C0.176583 16.6169 0 16.1909 0 15.6923V2.30775C0 1.80908 0.176583 1.38308 0.52975 1.02975C0.883083 0.676583 1.30908 0.5 1.80775 0.5H15.1923C15.6909 0.5 16.1169 0.676583 16.4703 1.02975C16.8234 1.38308 17 1.80908 17 2.30775V5.029H15.5V2.30775C15.5 2.21792 15.4712 2.14417 15.4135 2.0865C15.3558 2.02883 15.2821 2 15.1923 2H1.80775C1.71792 2 1.64417 2.02883 1.5865 2.0865C1.52883 2.14417 1.5 2.21792 1.5 2.30775V15.6923C1.5 15.7821 1.52883 15.8558 1.5865 15.9135C1.64417 15.9712 1.71792 16 1.80775 16H15.1923C15.2821 16 15.3558 15.9712 15.4135 15.9135C15.4712 15.8558 15.5 15.7821 15.5 15.6923V12.971H17V15.6923C17 16.1909 16.8234 16.6169 16.4703 16.9703C16.1169 17.3234 15.6909 17.5 15.1923 17.5H1.80775ZM9.80775 13.5C9.30908 13.5 8.88308 13.3234 8.52975 12.9703C8.17658 12.6169 8 12.1909 8 11.6923V6.30775C8 5.80908 8.17658 5.38308 8.52975 5.02975C8.88308 4.67658 9.30908 4.5 9.80775 4.5H16.1923C16.6909 4.5 17.1169 4.67658 17.4703 5.02975C17.8234 5.38308 18 5.80908 18 6.30775V11.6923C18 12.1909 17.8234 12.6169 17.4703 12.9703C17.1169 13.3234 16.6909 13.5 16.1923 13.5H9.80775ZM16.1923 12C16.2821 12 16.3558 11.9712 16.4135 11.9135C16.4712 11.8558 16.5 11.7821 16.5 11.6923V6.30775C16.5 6.21792 16.4712 6.14417 16.4135 6.0865C16.3558 6.02883 16.2821 6 16.1923 6H9.80775C9.71792 6 9.64417 6.02883 9.5865 6.0865C9.52883 6.14417 9.5 6.21792 9.5 6.30775V11.6923C9.5 11.7821 9.52883 11.8558 9.5865 11.9135C9.64417 11.9712 9.71792 12 9.80775 12H16.1923ZM12.5 10.5C12.9167 10.5 13.2708 10.3542 13.5625 10.0625C13.8542 9.77083 14 9.41667 14 9C14 8.58333 13.8542 8.22917 13.5625 7.9375C13.2708 7.64583 12.9167 7.5 12.5 7.5C12.0833 7.5 11.7292 7.64583 11.4375 7.9375C11.1458 8.22917 11 8.58333 11 9C11 9.41667 11.1458 9.77083 11.4375 10.0625C11.7292 10.3542 12.0833 10.5 12.5 10.5Z" fill="#636F7B"/></symbol>
<symbol id="product_size-table" viewBox="0 0 20 12" fill="none" xmlns="http://www.w3.org/2000/svg"><path d="M2.30775 11.5C1.80258 11.5 1.375 11.325 1.025 10.975C0.675 10.625 0.5 10.1974 0.5 9.69225V2.30775C0.5 1.80258 0.675 1.375 1.025 1.025C1.375 0.675 1.80258 0.5 2.30775 0.5H17.6923C18.1974 0.5 18.625 0.675 18.975 1.025C19.325 1.375 19.5 1.80258 19.5 2.30775V9.69225C19.5 10.1974 19.325 10.625 18.975 10.975C18.625 11.325 18.1974 11.5 17.6923 11.5H2.30775ZM2.30775 10H17.6923C17.7693 10 17.8398 9.96792 17.9038 9.90375C17.9679 9.83975 18 9.76925 18 9.69225V2.30775C18 2.23075 17.9679 2.16025 17.9038 2.09625C17.8398 2.03208 17.7693 2 17.6923 2H14.75V5.61525H13.25V2H10.75V5.61525H9.25V2H6.75V5.61525H5.25V2H2.30775C2.23075 2 2.16025 2.03208 2.09625 2.09625C2.03208 2.16025 2 2.23075 2 2.30775V9.69225C2 9.76925 2.03208 9.83975 2.09625 9.90375C2.16025 9.96792 2.23075 10 2.30775 10Z" fill="#586994"/></symbol>
</svg>