<svg viewBox="0 0 18 18" fill="none" xmlns="http://www.w3.org/2000/svg">
                <path
                    d="M16.6029 17.8545C14.7184 17.8545 12.8252 17.4163 10.9232 16.54C9.02133 15.6637 7.27391 14.4275 5.68091 12.8315C4.08808 11.2353 2.85349 9.48783 1.97716 7.58899C1.10083 5.69033 0.662659 3.79874 0.662659 1.91424C0.662659 1.61141 0.762659 1.35908 0.962659 1.15724C1.16266 0.955408 1.41266 0.854492 1.71266 0.854492H4.97416C5.22666 0.854492 5.44941 0.936909 5.64241 1.10174C5.83541 1.26641 5.95816 1.46991 6.01066 1.71224L6.58391 4.65449C6.62358 4.92749 6.61524 5.16208 6.55891 5.35824C6.50241 5.55441 6.40108 5.71916 6.25491 5.85249L3.94541 8.10074C4.31708 8.78141 4.74174 9.42533 5.21941 10.0325C5.69691 10.6395 6.21391 11.2192 6.77041 11.7717C7.31908 12.3206 7.90241 12.8302 8.52041 13.3007C9.13841 13.7712 9.80574 14.2091 10.5224 14.6142L12.7664 12.3507C12.9229 12.1879 13.1124 12.0737 13.3349 12.0082C13.5572 11.9429 13.7883 11.9269 14.0282 11.9602L16.8049 12.5257C17.0574 12.5924 17.2635 12.7212 17.4232 12.9122C17.5828 13.1032 17.6627 13.3199 17.6627 13.5622V16.8045C17.6627 17.1045 17.5617 17.3545 17.3599 17.5545C17.1581 17.7545 16.9057 17.8545 16.6029 17.8545ZM3.23566 6.68149L5.02041 4.97374C5.05241 4.94808 5.07324 4.91283 5.08291 4.86799C5.09258 4.82316 5.09099 4.78149 5.07816 4.74299L4.64341 2.50824C4.63058 2.45708 4.60816 2.41866 4.57616 2.39299C4.54416 2.36732 4.50249 2.35449 4.45116 2.35449H2.31266C2.27416 2.35449 2.24208 2.36732 2.21641 2.39299C2.19091 2.41866 2.17816 2.45074 2.17816 2.48924C2.22933 3.17258 2.34116 3.86674 2.51366 4.57174C2.68599 5.27691 2.92666 5.98016 3.23566 6.68149ZM11.9357 15.3237C12.5985 15.6327 13.2898 15.869 14.0097 16.0325C14.7297 16.1958 15.4024 16.2929 16.0279 16.3237C16.0664 16.3237 16.0985 16.3109 16.1242 16.2852C16.1498 16.2596 16.1627 16.2275 16.1627 16.189V14.0852C16.1627 14.0339 16.1498 13.9922 16.1242 13.9602C16.0985 13.9282 16.0601 13.9058 16.0089 13.893L13.9089 13.466C13.8704 13.4532 13.8367 13.4516 13.8079 13.4612C13.7791 13.4709 13.7486 13.4917 13.7164 13.5237L11.9357 15.3237Z"
                    fill="#FEFEFF"/>
</svg> 