<svg width="20" height="18" viewBox="0 0 20 18" fill="none" xmlns="http://www.w3.org/2000/svg">
<path d="M10 17.3268L8.89625 16.3345C7.23858 14.8307 5.86775 13.5384 4.78375 12.4578C3.69975 11.3769 2.84075 10.415 2.20675 9.57202C1.57275 8.72919 1.12983 7.96027 0.878 7.26527C0.626 6.57044 0.5 5.86536 0.5 5.15002C0.5 3.73086 0.9785 2.54269 1.9355 1.58552C2.89267 0.628524 4.08083 0.150024 5.5 0.150024C6.373 0.150024 7.198 0.354191 7.975 0.762524C8.752 1.17086 9.427 1.75644 10 2.51927C10.573 1.75644 11.248 1.17086 12.025 0.762524C12.802 0.354191 13.627 0.150024 14.5 0.150024C15.9192 0.150024 17.1073 0.628524 18.0645 1.58552C19.0215 2.54269 19.5 3.73086 19.5 5.15002C19.5 5.86536 19.374 6.57044 19.122 7.26527C18.8702 7.96027 18.4272 8.72919 17.7932 9.57202C17.1592 10.415 16.3018 11.3769 15.221 12.4578C14.1403 13.5384 12.7679 14.8307 11.1038 16.3345L10 17.3268Z" fill="currentColor"/>
</svg>
