<svg width="24" height="25" viewBox="0 0 24 25" fill="none" xmlns="http://www.w3.org/2000/svg">
<mask id="mask0_1522_139" style="mask-type:alpha" maskUnits="userSpaceOnUse" x="0" y="0" width="24" height="25">
<rect y="0.854492" width="24" height="24" fill="#currentColor"/>
</mask>
<g mask="url(#mask0_1522_139)">
<path d="M12 21.1811L10.8963 20.1889C9.23858 18.6851 7.86775 17.3928 6.78375 16.3121C5.69975 15.2313 4.84075 14.2694 4.20675 13.4264C3.57275 12.5836 3.12983 11.8146 2.878 11.1196C2.626 10.4248 2.5 9.71973 2.5 9.00439C2.5 7.58523 2.9785 6.39706 3.9355 5.43989C4.89267 4.48289 6.08083 4.00439 7.5 4.00439C8.373 4.00439 9.198 4.20856 9.975 4.61689C10.752 5.02523 11.427 5.61081 12 6.37365C12.573 5.61081 13.248 5.02523 14.025 4.61689C14.802 4.20856 15.627 4.00439 16.5 4.00439C17.9192 4.00439 19.1073 4.48289 20.0645 5.43989C21.0215 6.39706 21.5 7.58523 21.5 9.00439C21.5 9.71973 21.374 10.4248 21.122 11.1196C20.8702 11.8146 20.4272 12.5836 19.7932 13.4264C19.1592 14.2694 18.3018 15.2313 17.221 16.3121C16.1403 17.3928 14.7679 18.6851 13.1038 20.1889L12 21.1811ZM12 19.1544C13.6 17.7147 14.9167 16.4807 15.95 15.4524C16.9833 14.4242 17.8 13.531 18.4 12.7726C19 12.0143 19.4167 11.3409 19.65 10.7524C19.8833 10.1641 20 9.58139 20 9.00439C20 8.00439 19.6667 7.17106 19 6.50439C18.3333 5.83773 17.5 5.50439 16.5 5.50439C15.7103 5.50439 14.9805 5.72839 14.3105 6.17639C13.6407 6.62456 13.1102 7.24798 12.7192 8.04664H11.2808C10.8833 7.24148 10.3512 6.61648 9.6845 6.17164C9.01783 5.72681 8.28967 5.50439 7.5 5.50439C6.50633 5.50439 5.67458 5.83773 5.00475 6.50439C4.33492 7.17106 4 8.00439 4 9.00439C4 9.58139 4.11667 10.1641 4.35 10.7524C4.58333 11.3409 5 12.0143 5.6 12.7726C6.2 13.531 7.01667 14.4226 8.05 15.4476C9.08333 16.4726 10.4 17.7082 12 19.1544Z" fill="currentColor"/>
</g>
</svg>
