<svg viewBox="0 0 73 42" fill="none"
    xmlns="http://www.w3.org/2000/svg">
    <path
        d="M30.2789 3.31241L26.0996 12.408C26.0996 12.408 23.7938 10.8199 21.0556 10.9643C18.3174 11.1087 16.0116 12.408 16.0116 12.408C10.2471 15.7287 10.5353 23.8137 13.1293 26.7012C16.0116 31.4367 24.6585 31.3212 27.6848 28.4337V25.5462H19.7586L23.7938 15.873H32.1524C36.9946 -0.181479 53.4813 -0.58573 61.8399 3.31241C75.7952 10.9643 73.5131 25.6906 68.1809 33.3424C56.767 45.239 42.6727 41.4274 36.3317 34.3531C25.379 44.0262 16.7322 40.7056 9.5265 37.2406C-2.00262 30.6571 -0.792075 14.4004 6.93245 6.77742C14.657 -0.845594 23.9379 0.280526 30.2789 3.31241Z"
        fill="#445D9C" stroke="#FEFEFF" />
    <path
        d="M68.053 17.2497C68.6694 17.2497 69.2183 17.375 69.6998 17.6257C70.1813 17.868 70.5569 18.2065 70.8266 18.641C71.0962 19.0671 71.2311 19.5476 71.2311 20.0824V20.2453C71.2311 20.7801 71.0962 21.2647 70.8266 21.6992C70.5569 22.1337 70.1813 22.4763 69.6998 22.727C69.2183 22.9693 68.6694 23.0905 68.053 23.0905H65.6694V25.873H62.4769V17.2497H68.053ZM65.6694 21.0725H66.984C67.3211 21.0725 67.5715 20.9973 67.7352 20.8469C67.9085 20.6965 67.9952 20.4918 67.9952 20.2328V20.1325C67.9952 19.8651 67.9085 19.6604 67.7352 19.5183C67.5715 19.3679 67.3211 19.2927 66.984 19.2927H65.6694V21.0725Z"
        fill="#FEFEFF" />
    <path
        d="M55.3851 17.0994C57.0994 17.0994 58.4236 17.4796 59.3577 18.2399C60.2919 19.0003 60.759 20.1075 60.759 21.5614C60.759 23.0153 60.2919 24.1225 59.3577 24.8829C58.4236 25.6432 57.0994 26.0234 55.3851 26.0234C53.6709 26.0234 52.3467 25.6474 51.4125 24.8954C50.488 24.135 50.0258 23.0237 50.0258 21.5614C50.0258 20.0991 50.488 18.992 51.4125 18.2399C52.3467 17.4796 53.6709 17.0994 55.3851 17.0994ZM55.3851 19.1674C54.7014 19.1674 54.1813 19.3471 53.825 19.7064C53.4687 20.0657 53.2905 20.5503 53.2905 21.1603V21.9625C53.2905 22.5725 53.4687 23.0571 53.825 23.4164C54.1813 23.7757 54.7014 23.9554 55.3851 23.9554C56.0689 23.9554 56.589 23.7757 56.9453 23.4164C57.3112 23.0571 57.4942 22.5725 57.4942 21.9625V21.1603C57.4942 20.5503 57.3112 20.0657 56.9453 19.7064C56.589 19.3471 56.0689 19.1674 55.3851 19.1674Z"
        fill="#FEFEFF" />
    <path
        d="M45.1124 25.873V22.6016H41.6021V25.873H38.4095V17.2497H41.6021V20.3957H45.1124V17.2497H48.3049V25.873H45.1124Z"
        fill="#FEFEFF" />
    <path
        d="M32.1598 17.0994C33.431 17.0994 34.4759 17.325 35.2945 17.7762C36.1131 18.2191 36.532 18.8792 36.5513 19.7565V19.9069H33.561V19.8568C33.561 19.6061 33.4551 19.3972 33.2432 19.2301C33.0313 19.063 32.7087 18.9794 32.2753 18.9794C31.8516 18.9794 31.5241 19.0337 31.293 19.1424C31.0715 19.251 30.9608 19.3847 30.9608 19.5435C30.9608 19.7691 31.1148 19.9362 31.423 20.0448C31.7312 20.1534 32.2272 20.2662 32.9109 20.3832C33.7103 20.5253 34.3651 20.6757 34.8756 20.8344C35.3956 20.9848 35.8482 21.2355 36.2335 21.5865C36.6187 21.9374 36.8161 22.4137 36.8257 23.0153C36.8257 24.0347 36.4261 24.7909 35.6267 25.2839C34.837 25.7769 33.7777 26.0234 32.4487 26.0234C30.8982 26.0234 29.6895 25.7978 28.8228 25.3466C27.9657 24.8954 27.5371 24.0974 27.5371 22.9527H30.5563C30.5563 23.3872 30.6863 23.6796 30.9463 23.83C31.2063 23.9721 31.6108 24.0431 32.1598 24.0431C32.5642 24.0431 32.8965 24.0055 33.1565 23.9303C33.4262 23.8551 33.561 23.7005 33.561 23.4665C33.561 23.2576 33.4117 23.1031 33.1132 23.0028C32.8243 22.8942 32.3476 22.7814 31.683 22.6644C30.8741 22.514 30.2048 22.3594 29.6751 22.2006C29.1454 22.0335 28.6831 21.7619 28.2883 21.3859C27.8934 21.0099 27.696 20.5002 27.696 19.8568C27.696 18.9126 28.1149 18.2191 28.9528 17.7762C29.8003 17.325 30.8693 17.0994 32.1598 17.0994Z"
        fill="#FEFEFF" />
</svg> 
