<svg width="23" height="16" viewBox="0 0 23 16" fill="none" xmlns="http://www.w3.org/2000/svg">
<path d="M5.344 15.5577C4.56334 15.5577 3.90059 15.2847 3.35575 14.7387C2.81092 14.1927 2.5385 13.5298 2.5385 12.75H0.846252V2.30775C0.846252 1.80258 1.02125 1.375 1.37125 1.025C1.72125 0.675 2.14875 0.5 2.65375 0.5H16.2693V4.30775H18.923L22.1538 8.63475V12.75H20.3463C20.3463 13.5298 20.073 14.1927 19.5265 14.7387C18.9802 15.2847 18.3168 15.5577 17.5363 15.5577C16.7558 15.5577 16.093 15.2847 15.548 14.7387C15.0032 14.1927 14.7308 13.5298 14.7308 12.75H8.15375C8.15375 13.532 7.88059 14.1954 7.33425 14.7402C6.78792 15.2852 6.1245 15.5577 5.344 15.5577ZM5.34625 14.0577C5.71292 14.0577 6.0225 13.9314 6.275 13.6788C6.5275 13.4263 6.65375 13.1167 6.65375 12.75C6.65375 12.3833 6.5275 12.0737 6.275 11.821C6.0225 11.5685 5.71292 11.4423 5.34625 11.4423C4.97959 11.4423 4.66992 11.5685 4.41725 11.821C4.16475 12.0737 4.0385 12.3833 4.0385 12.75C4.0385 13.1167 4.16475 13.4263 4.41725 13.6788C4.66992 13.9314 4.97959 14.0577 5.34625 14.0577ZM2.34625 11.25H3.06925C3.28209 10.8795 3.58942 10.5689 3.99125 10.3183C4.39325 10.0676 4.84492 9.94225 5.34625 9.94225C5.83459 9.94225 6.28292 10.066 6.69125 10.3135C7.09959 10.561 7.41017 10.8732 7.623 11.25H14.7693V2H2.65375C2.57692 2 2.50642 2.03208 2.44225 2.09625C2.37825 2.16025 2.34625 2.23075 2.34625 2.30775V11.25ZM17.5385 14.0577C17.9052 14.0577 18.2148 13.9314 18.4673 13.6788C18.7199 13.4263 18.8463 13.1167 18.8463 12.75C18.8463 12.3833 18.7199 12.0737 18.4673 11.821C18.2148 11.5685 17.9052 11.4423 17.5385 11.4423C17.1718 11.4423 16.8622 11.5685 16.6095 11.821C16.357 12.0737 16.2308 12.3833 16.2308 12.75C16.2308 13.1167 16.357 13.4263 16.6095 13.6788C16.8622 13.9314 17.1718 14.0577 17.5385 14.0577ZM16.2693 9.25H20.75L18.1538 5.80775H16.2693V9.25Z" fill="#636F7B"/>
</svg>
