<svg viewBox="0 0 36 36" fill="none" xmlns="http://www.w3.org/2000/svg">
    <mask
        id="mask0_562_2323"
        maskUnits="userSpaceOnUse"
        x="0"
        y="0"
        width="36"
        height="36"
    >
        <rect width="36" height="36" fill="#D9D9D9" />
    </mask>
    <g mask="url(#mask0_562_2326)">
        <path
            d="M9.46163 32.25C8.70387 32.25 8.0625 31.9875 7.5375 31.4625C7.0125 30.9375 6.75 30.2961 6.75 29.5384V12.4616C6.75 11.7039 7.0125 11.0625 7.5375 10.5375C8.0625 10.0125 8.70387 9.75 9.46163 9.75H12.375V9.375C12.375 7.82125 12.924 6.49525 14.022 5.397C15.1203 4.299 16.4462 3.75 18 3.75C19.5538 3.75 20.8798 4.299 21.978 5.397C23.076 6.49525 23.625 7.82125 23.625 9.375V9.75H26.5384C27.2961 9.75 27.9375 10.0125 28.4625 10.5375C28.9875 11.0625 29.25 11.7039 29.25 12.4616V29.5384C29.25 30.2961 28.9875 30.9375 28.4625 31.4625C27.9375 31.9875 27.2961 32.25 26.5384 32.25H9.46163ZM9.46163 30H26.5384C26.6539 30 26.7596 29.9519 26.8556 29.8556C26.9519 29.7596 27 29.6539 27 29.5384V12.4616C27 12.3461 26.9519 12.2404 26.8556 12.1444C26.7596 12.0481 26.6539 12 26.5384 12H23.625V15.375C23.625 15.6943 23.5173 15.9615 23.3018 16.1768C23.0865 16.3923 22.8193 16.5 22.5 16.5C22.1807 16.5 21.9135 16.3923 21.6982 16.1768C21.4827 15.9615 21.375 15.6943 21.375 15.375V12H14.625V15.375C14.625 15.6943 14.5173 15.9615 14.3018 16.1768C14.0865 16.3923 13.8193 16.5 13.5 16.5C13.1807 16.5 12.9135 16.3923 12.6982 16.1768C12.4827 15.9615 12.375 15.6943 12.375 15.375V12H9.46163C9.34612 12 9.24038 12.0481 9.14438 12.1444C9.04813 12.2404 9 12.3461 9 12.4616V29.5384C9 29.6539 9.04813 29.7596 9.14438 29.8556C9.24038 29.9519 9.34612 30 9.46163 30ZM14.625 9.75H21.375V9.375C21.375 8.43475 21.0476 7.63713 20.3929 6.98213C19.7381 6.32738 18.9405 6 18 6C17.0595 6 16.2619 6.32738 15.6071 6.98213C14.9524 7.63713 14.625 8.43475 14.625 9.375V9.75Z"
            fill="#636F7B" />
    </g>
</svg>
