<svg viewBox="0 0 36 36" fill="none" xmlns="http://www.w3.org/2000/svg">
    <mask
        id="mask0_562_2323"
        maskUnits="userSpaceOnUse"
        x="0"
        y="0"
        width="36"
        height="36"
    >
        <rect width="36" height="36" fill="#D9D9D9" />
    </mask>
    <g mask="url(#mask0_562_2319)">
        <path
            d="M18 16.0638C16.4089 16.0638 15.0469 15.4976 13.9138 14.3653C12.7808 13.233 12.2143 11.8719 12.2143 10.2819C12.2143 8.69186 12.7808 7.33071 13.9138 6.19843C15.0469 5.06614 16.4089 4.5 18 4.5C19.5911 4.5 20.9531 5.06614 22.0862 6.19843C23.2192 7.33071 23.7857 8.69186 23.7857 10.2819C23.7857 11.8719 23.2192 13.233 22.0862 14.3653C20.9531 15.4976 19.5911 16.0638 18 16.0638ZM4.5 30V26.8272C4.5 26.0315 4.73175 25.2871 5.19525 24.5939C5.65907 23.9011 6.2828 23.363 7.06645 22.9798C8.88637 22.1077 10.7074 21.4536 12.5296 21.0174C14.3518 20.5815 16.1753 20.3635 18 20.3635C19.8247 20.3635 21.6482 20.5815 23.4704 21.0174C25.2926 21.4536 27.1136 22.1077 28.9336 22.9798C29.7172 23.363 30.3409 23.9011 30.8048 24.5939C31.2683 25.2871 31.5 26.0315 31.5 26.8272V30H4.5ZM6.42857 28.0727H29.5714V26.8272C29.5714 26.3997 29.4335 25.9981 29.1577 25.6226C28.8823 25.2471 28.5009 24.9296 28.0136 24.6701C26.4264 23.9017 24.7899 23.3131 23.104 22.9042C21.4181 22.4953 19.7168 22.2908 18 22.2908C16.2832 22.2908 14.5819 22.4953 12.896 22.9042C11.2101 23.3131 9.57359 23.9017 7.98637 24.6701C7.49909 24.9296 7.11771 25.2471 6.84225 25.6226C6.56646 25.9981 6.42857 26.3997 6.42857 26.8272V28.0727ZM18 14.1365C19.0607 14.1365 19.9688 13.759 20.7241 13.0042C21.4795 12.2493 21.8571 11.3419 21.8571 10.2819C21.8571 9.22187 21.4795 8.31443 20.7241 7.55958C19.9688 6.80472 19.0607 6.42729 18 6.42729C16.9393 6.42729 16.0312 6.80472 15.2759 7.55958C14.5205 8.31443 14.1429 9.22187 14.1429 10.2819C14.1429 11.3419 14.5205 12.2493 15.2759 13.0042C16.0312 13.759 16.9393 14.1365 18 14.1365Z"
            fill="#636F7B" />
    </g>
</svg>
