<svg viewBox="0 0 36 36" fill="none"
    xmlns="http://www.w3.org/2000/svg">
    <mask
        id="mask0_562_2323"
        maskUnits="userSpaceOnUse"
        x="0"
        y="0"
        width="36"
        height="36"
    >
        <rect width="36" height="36" fill="#D9D9D9" />
    </mask>
    <g mask="url(#mask0_562_2323)">
        <path
            d="M29.3138 30.8655L19.8927 21.444C19.1427 22.0633 18.2802 22.5479 17.3052 22.8979C16.3302 23.2479 15.3216 23.4229 14.2793 23.4229C11.7156 23.4229 9.54582 22.5353 7.77007 20.76C5.99432 18.9848 5.10645 16.8155 5.10645 14.2523C5.10645 11.6893 5.99407 9.51927 7.76932 7.74227C9.54457 5.96552 11.7138 5.07715 14.2771 5.07715C16.8401 5.07715 19.0101 5.96502 20.7871 7.74077C22.5638 9.51652 23.4522 11.6863 23.4522 14.25C23.4522 15.3213 23.2724 16.3444 22.9129 17.3194C22.5532 18.2944 22.0733 19.1424 21.4733 19.8634L30.8944 29.2845L29.3138 30.8655ZM14.2793 21.1733C16.2121 21.1733 17.8491 20.5025 19.1903 19.161C20.5318 17.8198 21.2026 16.1828 21.2026 14.25C21.2026 12.3173 20.5318 10.6803 19.1903 9.33902C17.8491 7.99752 16.2121 7.32677 14.2793 7.32677C12.3466 7.32677 10.7096 7.99752 9.36832 9.33902C8.02682 10.6803 7.35607 12.3173 7.35607 14.25C7.35607 16.1828 8.02682 17.8198 9.36832 19.161C10.7096 20.5025 12.3466 21.1733 14.2793 21.1733Z"
            fill="#636F7B" />
    </g>
</svg>