<svg version="1.0" xmlns="http://www.w3.org/2000/svg"
  viewBox="0 0 160.000000 160.000000"
 preserveAspectRatio="xMidYMid meet">

<g transform="translate(0.000000,160.000000) scale(0.100000,-0.100000)"
fill="#000000" stroke="none">
<path d="M195 1167 c-3 -7 -4 -136 -3 -287 l3 -275 84 -3 c71 -2 87 0 105 16
62 57 157 55 205 -2 11 -14 44 -16 210 -16 l196 1 32 29 33 30 0 260 0 260
-430 0 c-338 0 -432 -3 -435 -13z"/>
<path d="M1090 851 l0 -188 43 -6 c48 -7 94 -49 104 -98 5 -28 7 -29 69 -29
52 0 68 4 85 21 20 20 21 30 17 172 -3 139 -5 156 -27 194 -44 78 -132 123
-238 123 l-53 0 0 -189z m188 111 c51 -23 82 -72 89 -136 4 -42 2 -57 -8 -60
-8 -3 -61 5 -119 17 l-105 22 -3 79 c-2 44 -1 85 2 93 7 17 94 8 144 -15z"/>
<path d="M454 639 c-70 -19 -104 -104 -65 -167 65 -103 229 -39 207 81 -11 61
-79 102 -142 86z m70 -68 c25 -27 17 -72 -15 -90 -24 -13 -29 -13 -53 2 -17
12 -26 26 -26 44 0 55 59 83 94 44z"/>
<path d="M1071 637 c-44 -15 -73 -55 -74 -100 -2 -70 45 -117 119 -117 51 0
104 53 104 104 0 87 -71 140 -149 113z m71 -59 c9 -7 19 -23 23 -35 9 -32 -36
-77 -68 -68 -47 15 -61 61 -27 95 23 23 49 26 72 8z"/>
<path d="M190 571 c0 -35 13 -41 86 -41 41 0 74 4 74 9 0 5 3 16 6 25 5 14 -6
16 -80 16 -47 0 -86 -4 -86 -9z"/>
<path d="M610 568 c1 -36 14 -39 191 -36 172 3 174 3 177 26 l3 22 -185 0
c-142 0 -186 -3 -186 -12z"/>
</g>
</svg>
