<svg version="1.0" xmlns="http://www.w3.org/2000/svg"
  viewBox="0 0 160.000000 160.000000"
 preserveAspectRatio="xMidYMid meet">

<g transform="translate(0.000000,160.000000) scale(0.100000,-0.100000)"
fill="#000000" stroke="none">
<path d="M160 845 c0 -352 2 -420 15 -445 31 -61 25 -60 577 -60 541 0 532 0
572 53 18 24 21 42 21 130 l0 102 -165 5 c-107 3 -173 9 -187 18 -38 22 -53
64 -53 153 0 86 19 137 58 155 9 5 91 11 182 14 l165 5 0 102 c0 88 -3 106
-21 130 -40 54 -28 53 -616 53 l-548 0 0 -415z"/>
<path d="M999 911 c-27 -28 -29 -34 -29 -109 0 -72 3 -84 26 -111 l26 -31 192
2 191 3 0 135 0 135 -188 3 -188 2 -30 -29z m151 -71 c11 -11 20 -29 20 -40 0
-25 -34 -60 -59 -60 -19 0 -61 43 -61 62 0 15 48 58 65 58 8 0 24 -9 35 -20z"/>
</g>
</svg>
