<svg version="1.0" xmlns="http://www.w3.org/2000/svg"
  viewBox="0 0 160.000000 160.000000"
 preserveAspectRatio="xMidYMid meet">

<g transform="translate(0.000000,160.000000) scale(0.100000,-0.100000)"
fill="#000000" stroke="none">
<path d="M825 1504 c-168 -26 -349 -140 -437 -275 -17 -27 -33 -49 -35 -49 -2
0 -27 16 -56 35 -28 19 -55 35 -59 35 -9 0 -9 -224 1 -355 l6 -90 214 79 215
80 -37 29 -36 30 36 70 c52 98 140 185 238 233 78 39 80 39 194 39 110 0 120
-2 183 -32 38 -18 85 -45 105 -60 l37 -28 -22 31 c-62 89 -185 173 -302 208
-56 17 -193 28 -245 20z"/>
<path d="M1161 716 l-215 -80 37 -29 36 -30 -36 -70 c-52 -98 -140 -185 -238
-233 -78 -39 -80 -39 -194 -39 -110 0 -120 2 -183 32 -38 18 -85 45 -105 60
l-37 28 22 -31 c63 -90 185 -173 308 -210 80 -24 238 -24 319 0 139 41 285
147 357 257 17 27 33 49 35 49 2 0 27 -16 56 -35 28 -19 55 -35 59 -35 9 0 9
224 -1 355 l-6 90 -214 -79z"/>
</g>
</svg>
