<svg version="1.0" xmlns="http://www.w3.org/2000/svg" viewBox="0 0 160.000000 160.000000"
 preserveAspectRatio="xMidYMid meet">

<g transform="translate(0.000000,160.000000) scale(0.100000,-0.100000)"
fill="#000000" stroke="none">
<path d="M678 1460 c-301 -54 -515 -296 -535 -600 -8 -140 33 -282 117 -405
52 -76 173 -141 295 -158 39 -6 38 -5 -26 29 -151 80 -276 259 -294 419 -2 22
-2 32 1 23 3 -9 18 -21 35 -27 16 -5 29 -16 29 -23 1 -24 38 -58 64 -58 47 0
64 -29 61 -106 -1 -38 -5 -77 -10 -87 -12 -29 15 -67 78 -108 75 -49 119 -63
173 -55 50 6 150 54 177 84 18 20 18 20 -1 26 -26 9 -33 27 -39 115 -5 58 -11
78 -30 99 -12 14 -23 31 -23 37 0 7 -9 23 -19 36 -17 21 -28 24 -88 24 -89 0
-124 20 -118 67 3 18 7 54 10 79 6 45 35 88 81 116 18 12 18 13 2 23 -25 16
-24 70 1 70 10 0 25 7 32 16 11 14 10 18 -5 30 -10 7 -24 15 -30 17 -15 6 3
35 32 55 20 13 22 12 28 -4 8 -22 34 -54 44 -54 11 0 40 70 40 99 0 37 32 67
56 53 13 -7 29 -6 57 5 21 9 39 14 40 12 1 -2 7 -13 13 -24 17 -30 68 -41 99
-21 14 9 25 20 25 24 0 5 -17 18 -37 31 -21 12 -29 20 -18 16 48 -15 131 -75
186 -132 69 -74 122 -179 140 -275 7 -38 16 -68 19 -68 4 0 21 5 39 11 37 13
39 33 16 122 -69 264 -307 458 -582 472 -48 2 -109 0 -135 -5z m-183 -244 c2
-31 1 -55 -3 -54 -4 0 -22 -3 -40 -7 -25 -6 -34 -14 -40 -39 -7 -25 -14 -32
-38 -34 -16 -2 -33 -9 -39 -16 -5 -7 -25 -21 -43 -30 l-34 -17 37 69 c42 81
169 212 187 194 5 -5 12 -35 13 -66z"/>
<path d="M1045 1257 c-22 -12 -44 -37 -45 -51 0 -5 7 -2 16 5 9 7 36 16 61 19
l44 5 -28 17 c-22 13 -33 14 -48 5z"/>
<path d="M813 1237 c6 -17 -2 -30 -28 -46 -17 -10 -14 -10 20 -5 59 10 72 23
43 46 -27 21 -42 23 -35 5z"/>
<path d="M732 1062 c-34 -10 -31 -27 5 -30 20 -2 40 -13 52 -28 18 -23 25 -25
65 -19 40 6 46 5 61 -19 20 -31 50 -34 65 -7 5 11 10 22 10 25 0 10 -55 33
-94 39 -21 3 -56 15 -77 27 -42 21 -50 22 -87 12z"/>
<path d="M1010 895 c0 -14 9 -43 20 -64 18 -36 23 -39 67 -43 61 -5 173 35
173 61 0 27 -23 50 -53 53 -25 3 -30 -2 -40 -32 -9 -27 -20 -38 -47 -47 -33
-11 -36 -10 -67 22 -18 19 -33 44 -33 55 0 11 -4 20 -10 20 -5 0 -10 -11 -10
-25z"/>
<path d="M1210 772 c-113 -41 -207 -77 -209 -79 -3 -2 4 -10 15 -17 62 -46 61
-35 19 -115 -149 -283 -460 -374 -710 -207 -68 46 -70 45 -21 -17 58 -73 176
-149 283 -183 27 -8 87 -17 134 -21 168 -12 333 47 459 164 57 53 83 83 146
172 2 2 25 -12 51 -31 26 -19 54 -38 61 -42 9 -6 12 42 12 223 0 214 -1 231
-17 230 -10 0 -110 -35 -223 -77z"/>
</g>
</svg>
