<svg viewBox="0 0 160 72" fill="none" xmlns="http://www.w3.org/2000/svg">
<g clip-path="url(#clip0_650_1956)">
<path d="M160.305 24.6676C159.829 25.9261 159.447 27.1845 158.971 28.5169C158.876 28.8871 158.685 28.9611 158.209 28.9611C155.35 28.9611 152.491 28.9611 149.537 28.9611C148.298 28.9611 147.25 29.3312 146.678 30.2195C146.297 30.7377 146.297 31.2559 146.869 31.7C147.441 32.1442 148.012 32.5143 148.68 32.8104C149.918 33.4026 151.157 33.8468 152.396 34.439C153.539 34.9572 154.588 35.5494 155.541 36.2896C157.256 37.5481 157.732 39.2506 157.446 41.0273C157.256 42.2857 156.684 43.4701 155.922 44.5805C154.016 47.2454 151.062 48.6519 147.25 48.7999C143.343 48.948 139.436 48.874 135.529 48.874C135.434 48.874 135.339 48.874 135.053 48.7999C135.243 48.2818 135.434 47.7636 135.529 47.3194C135.91 46.2831 136.196 45.3207 136.577 44.2844C136.673 43.9143 136.863 43.8402 137.34 43.8402C140.199 43.8402 143.057 43.8402 145.916 43.8402C146.774 43.8402 147.631 43.7662 148.489 43.6182C149.632 43.3961 150.204 42.7298 150.395 41.8415C150.585 41.1013 150.109 40.5831 149.442 40.213C148.584 39.6948 147.631 39.2506 146.678 38.8065C145.344 38.1403 143.915 37.5481 142.676 36.8818C141.056 35.9935 139.722 34.8091 139.436 33.1806C139.341 32.3663 139.341 31.552 139.531 30.8117C140.77 26.1481 145.916 24.1494 150.204 24.0754C153.444 24.0014 156.779 24.0754 160.019 24.0754C160.115 24.0754 160.21 24.0754 160.4 24.1494C160.4 24.2235 160.305 24.4455 160.305 24.6676ZM138.293 28.5169C138.197 28.813 138.007 28.8871 137.626 28.8871C135.815 28.8871 133.909 28.8871 132.099 29.0351C126.286 29.7014 121.712 33.6247 121.331 38.0662C121.045 41.3974 123.713 43.6922 128.001 43.6922C129.621 43.6922 131.241 43.6922 132.956 43.6922H133.719C133.528 44.3584 133.338 44.8766 133.147 45.3948C132.861 46.3571 132.48 47.2454 132.194 48.2077C132.099 48.5038 131.908 48.6519 131.527 48.6519C129.335 48.6519 127.048 48.7259 124.857 48.5779C118.853 48.3558 114.756 45.3948 114.184 40.9532C113.803 37.8442 114.946 34.9572 116.852 32.2922C120.187 27.6286 125.333 24.8897 132.194 24.1494C134.576 23.9274 136.959 24.0014 139.436 23.9274C139.531 23.9274 139.627 23.9274 139.722 24.0014L139.246 25.4079C138.96 26.4442 138.579 27.4806 138.293 28.5169ZM108.752 48.2818C108.657 48.6519 108.466 48.7999 107.895 48.7999C105.989 48.7999 104.178 48.7999 102.272 48.7999C102.082 48.7999 101.891 48.7999 101.605 48.7999L102.272 46.8753L109.61 25.1118C109.991 23.9274 109.991 23.9274 111.325 23.9274C112.945 23.9274 114.565 23.9274 116.09 23.9274C116.28 23.9274 116.566 23.9274 116.852 23.9274C116.376 25.4079 115.899 26.7403 115.423 28.1468C113.231 34.8831 111.039 41.5454 108.752 48.2818ZM103.225 28.4429C103.13 28.813 102.939 28.8871 102.463 28.8871C99.6042 28.8871 96.7455 28.8871 93.8867 28.8871C92.6479 28.8871 91.695 29.2572 91.1233 30.0715C90.6468 30.6637 90.7421 31.1819 91.3139 31.626C91.8856 32.0702 92.5527 32.4403 93.315 32.8104C94.6491 33.4767 96.1737 34.0689 97.5078 34.6611C98.0796 34.8831 98.556 35.1792 99.0325 35.5494C101.32 36.9559 102.368 38.8805 101.796 41.1753C101.51 42.6558 100.748 44.0623 99.6995 45.3207C97.9843 47.2454 95.5067 48.3558 92.4574 48.6519C91.1233 48.7999 89.7892 48.7999 88.4551 48.7999C85.6917 48.7999 82.9282 48.7999 80.26 48.7999C79.9742 48.7999 79.7836 48.7999 79.4024 48.7999C79.4977 48.4298 79.593 48.0597 79.6883 47.7636C80.0694 46.6532 80.4506 45.5428 80.8318 44.4324C80.9271 43.9883 81.2129 43.8402 81.88 43.8402C84.7387 43.8402 87.5975 43.8402 90.3609 43.8402C91.028 43.8402 91.7903 43.7662 92.4574 43.6922C93.315 43.5441 93.982 43.248 94.3632 42.5818C94.935 41.6195 94.8397 40.8792 93.7915 40.213C92.8385 39.6208 91.7903 39.1766 90.8374 38.6584C89.5033 37.9922 88.0739 37.4 86.7399 36.6598C84.9293 35.6234 83.7858 34.2909 83.5952 32.5143C83.4999 31.0338 83.9764 29.6273 84.9293 28.3689C86.8352 25.704 89.8845 24.3715 93.6962 24.0014C94.2679 23.9274 94.935 23.9274 95.5067 23.9274C98.3655 23.9274 101.224 23.9274 103.988 23.9274H104.655C104.274 25.1118 103.892 26.2962 103.511 27.4066C103.511 27.7767 103.321 28.0728 103.225 28.4429ZM77.1154 44.8766C76.7342 46.061 76.2578 47.2454 75.8766 48.4298C75.7813 48.7259 75.5907 48.7999 75.3048 48.7999C70.8261 48.7999 66.2521 48.7999 61.7734 48.7259C60.2488 48.7259 58.7241 48.3558 57.39 47.7636C54.436 46.5051 52.9113 43.9143 53.6736 41.1013C54.2454 38.8065 55.8653 37.1039 58.2476 35.6974C61.297 33.8468 64.8228 32.8104 68.7297 32.8845C70.3497 32.8845 71.9696 32.8845 73.4943 32.8845C73.9708 32.8845 74.2566 32.7364 74.2566 32.3663C74.3519 31.7741 74.6378 31.1819 74.7331 30.5897C74.8284 29.7014 74.1613 29.1091 73.0178 28.9611C72.5414 28.8871 72.0649 28.8871 71.5885 28.8871C68.825 28.8871 65.9663 28.8871 63.2028 28.8871H62.4405C63.0122 27.2585 63.584 25.704 64.0604 24.1494C64.0604 24.0014 64.4416 23.9274 64.6322 23.9274C67.0145 23.9274 69.4921 23.9274 71.9696 23.9274C72.8273 23.9274 73.7802 23.8533 74.7331 23.9274C77.6871 24.1494 80.0694 25.1118 81.4035 27.2585C82.2611 28.665 82.1659 30.1455 81.6894 31.626C80.1647 36.0675 78.6401 40.4351 77.1154 44.8766ZM72.1602 37.8442C70.2544 37.8442 68.3486 37.7701 66.4427 37.8442C64.1557 37.9182 61.964 39.2506 61.3923 40.8792C60.9158 42.3597 61.964 43.6182 63.8698 43.6922C65.871 43.7662 67.9674 43.6922 69.9685 43.7662C70.3497 43.7662 70.445 43.6182 70.5403 43.3961C71.112 41.6935 71.6838 39.9169 72.3508 38.2143C72.3508 38.1403 72.3508 37.9922 72.4461 37.8442C72.2555 37.8442 72.1602 37.8442 72.1602 37.8442ZM40.6187 40.9532C36.3305 45.0246 31.4706 48.6519 25.7531 51.6129C22.3226 53.3155 18.7968 54.796 14.7946 55.4622C11.9358 55.9064 9.07708 55.9804 6.31362 55.2402C2.69253 54.2038 0.500818 51.835 0.405526 48.874C0.310235 45.9129 1.54903 43.3221 3.45486 40.8052C5.83716 37.7701 8.88649 35.2533 12.4123 33.1065C16.6051 30.5156 21.0838 28.4429 26.2296 27.1845C27.8496 26.8144 29.5648 26.5183 31.3754 26.4442C32.5189 26.3702 33.7576 26.5183 34.9011 26.8144C37.474 27.4066 38.7128 29.3312 38.0458 31.3299C38.0458 31.4039 37.9505 31.552 37.9505 31.7L38.0458 31.7741C38.5222 31.3299 38.9987 30.8858 39.3799 30.3676C41.2857 28.2949 43.0009 26.1481 43.8586 23.6313C44.1444 22.743 44.4303 21.7806 44.2397 20.8923C43.8586 19.1157 42.4292 18.0793 40.3328 17.5612C38.1411 16.8209 35.9494 16.969 33.7576 17.2651C29.5648 17.8573 25.7531 19.1157 22.0368 20.7443C20.5121 21.4105 18.9874 22.1507 17.4628 22.891L17.0816 22.4469C17.6533 22.0767 18.1298 21.7806 18.7015 21.4105C23.8473 18.3754 29.3742 16.0807 35.6635 14.8962C38.8081 14.304 41.9527 14.0079 45.0974 14.6001C49.2902 15.3404 52.0537 17.9313 52.3395 21.2624C52.5301 23.9274 51.6725 26.3702 50.3384 28.739C47.9561 33.2546 44.5256 37.252 40.6187 40.9532ZM32.5189 28.9611C31.1848 28.813 29.946 29.0351 28.6119 29.3312C23.3708 30.5897 19.178 33.1065 15.7475 36.2896C14.604 37.326 13.6511 38.5104 13.1746 39.8429C12.4123 42.0636 14.1275 43.7662 16.9863 43.7662C18.511 43.7662 19.845 43.4701 21.1791 42.9519C26.039 41.1753 30.0413 38.5104 33.5671 35.4013C34.52 34.587 35.0917 33.5507 35.4729 32.4403C36.2352 30.5156 35.0917 29.1832 32.5189 28.9611Z" fill="#0E0E0E"/>
</g>
<defs>
<clipPath id="clip0_650_1956">
<rect width="160" height="72" fill="white"/>
</clipPath>
</defs>
</svg>
