<svg viewBox="0 0 160 72" fill="none" xmlns="http://www.w3.org/2000/svg">
<path fill-rule="evenodd" clip-rule="evenodd" d="M58.7626 9C54.6648 9 51.3422 12.3019 51.3422 16.3723V54.2708C51.3422 58.343 54.6648 61.6431 58.7626 61.6431C62.8604 61.6431 66.1813 58.343 66.1813 54.2708V16.3723C66.1813 12.3037 62.8604 9 58.7626 9Z" fill="#0E0E0E"/>
<path fill-rule="evenodd" clip-rule="evenodd" d="M39.7689 9.51587H7.41689C3.32089 9.51587 0 12.8178 0 16.8899C0 20.9603 3.32089 24.2622 7.41867 24.2622H39.7689C43.8667 24.2622 47.1893 20.9603 47.1893 16.8899C47.1893 12.8178 43.8667 9.51587 39.7689 9.51587Z" fill="#0E0E0E"/>
<path fill-rule="evenodd" clip-rule="evenodd" d="M155.84 38.7825L140.203 13.4891C138.364 10.5494 135.863 9.13073 132.702 9.13073C129.445 9.13073 126.676 10.6483 124.956 13.4891L106.852 43.3016C105.614 45.3439 104.188 46.1919 101.831 46.1919H88.3733C87.2284 46.1919 86.4764 45.3545 86.4764 44.3086V16.125C86.4711 12.0634 83.1591 9 79.072 9C74.9831 9 71.6693 12.0652 71.6693 16.1267V50.6757C71.6693 55.8732 76.8356 60.9064 81.9644 60.9064H109.058C112.901 60.9064 115.481 58.1186 117.676 54.3079L131.764 30.2795C131.888 30.0145 132.119 29.6753 132.388 29.6753C132.674 29.6753 132.852 30.0163 132.996 30.2618L142.222 44.964C142.604 45.5877 142.677 45.9039 142.432 46.4586C142.213 46.9657 141.714 47.0734 140.9 47.0734H127.948C124.103 47.0734 120.987 50.1686 120.987 53.9899C120.987 57.8095 124.103 60.9064 127.948 60.9064H149.077C154.208 60.9064 160 56.0428 160 49.6916C160 45.6654 159.22 44.2468 155.84 38.7825ZM36.2062 28.3909H7.41867C3.32089 28.3909 0 31.6928 0 35.765V53.755C0 57.8271 3.32089 61.1273 7.41867 61.1273C11.5164 61.1273 14.8391 57.8271 14.8391 53.755V45.3492C14.8391 44.1284 15.8347 43.1373 17.0649 43.1373H36.2062C40.304 43.1373 43.6267 39.8354 43.6267 35.765C43.6267 31.6928 40.304 28.3909 36.2062 28.3909Z" fill="#0E0E0E"/>
</svg>
