<svg viewBox="0 0 160 72" fill="none" xmlns="http://www.w3.org/2000/svg">
<path d="M81.0486 25.4299L87.9934 13.3499L111.578 11.8398L112.403 10.3642L90.6062 8.85415L95.7289 0.0343184H136.16C148.605 0.0343184 157.785 4.49571 154.209 17.5024C153.143 21.4833 148.09 31.4357 133.237 35.5882C136.4 35.9657 144.239 39.4318 142.864 48.4233C140.457 64.3813 119.795 71.9657 108.278 71.9657L60.5237 72L58.1515 62.7683L83.1802 61.0181L84.0397 59.5424L56.8794 57.8951L53.9571 46.9476L92.5659 44.6826L93.4254 43.2412L24.0809 38.9171L27.4158 33.1516L102.089 28.3127L102.949 26.8713L81.0486 25.4299ZM112.3 27.8322L119.176 27.7979C123.783 27.7636 128.562 25.6702 130.315 21.449C131.931 17.5024 129.765 14.1392 126.877 14.1735H120.207L112.3 27.8322ZM104.358 41.5253L96.0727 55.9047H103.98C107.659 55.9047 114.225 54.0858 116.254 48.8694C118.145 43.9962 114.672 41.5253 112.266 41.5253H104.358ZM44.1245 63.7293L39.3113 71.9314L5 72L8.33486 66.2345L44.1245 63.7293ZM46.5311 0L74.1382 0.0343184L76.2354 7.82459L43.265 5.76549L46.5311 0ZM77.7825 14.0019L80.8079 25.4299L33.6729 22.3413L36.9734 16.6101L77.7825 14.0019ZM53.7852 46.9476L47.8031 57.3117L14.5576 55.4242L17.8925 49.6587L53.7852 46.9476Z" fill="#0E0E0E"/>
</svg>
