<svg viewBox="0 0 160 72" fill="none" xmlns="http://www.w3.org/2000/svg">
<path d="M41.8533 0.59003C41.2678 0.719612 40.6823 2.79292 39.4462 4.02394C38.6005 4.80143 37.5596 4.80143 36.9741 5.7733C36.7138 6.09725 36.8439 6.80995 36.5837 7.39307C36.1283 8.68888 34.4369 8.81846 34.4369 10.1143C34.4369 11.5397 35.8681 11.8636 37.0391 12.9651C38.015 13.8074 38.1451 14.3905 39.186 14.7144C40.1618 15.0384 41.593 14.0017 42.8942 14.3905C44.0001 14.7144 45.041 14.9736 45.3012 16.0102C45.5615 17.0469 45.3012 18.6019 44.0001 18.3427C43.5447 18.3427 41.593 17.63 39.3161 17.8892C36.4536 18.2131 33.2008 19.0554 33.0056 22.2302C32.8755 23.9795 35.0224 25.988 37.0391 25.6641C38.4703 25.4049 37.7547 23.6556 38.6005 22.8133C39.7064 21.7766 45.4964 26.4416 51.0262 26.4416C53.3031 26.4416 55.0596 25.8584 56.7511 24.1091C56.8812 23.9795 57.1414 23.6556 57.3366 23.6556C57.5968 23.6556 57.9221 23.9147 58.0522 23.9795C62.476 27.4782 65.7939 34.4756 81.9278 34.5404C84.2048 34.5404 86.807 35.5771 88.9539 37.456C90.8405 39.2054 91.9464 41.9266 92.9873 44.6478C94.6788 48.7944 97.5413 52.7466 101.965 57.0876C102.225 57.3468 105.803 60.1328 106.129 60.2624C106.129 60.2624 106.519 60.9751 106.389 61.299C106.259 64.0202 105.934 71.6656 111.789 71.9895C113.22 72.1191 112.895 71.0176 112.895 70.3697C112.895 69.0739 112.634 67.6485 113.35 66.3527C114.326 64.4738 111.333 63.6315 111.333 59.5497C111.463 56.5045 108.796 56.958 107.495 54.7551C106.779 53.4593 106.064 52.6171 106.064 50.9973C106.324 41.7322 104.047 35.5771 102.941 34.1517C102.095 32.9854 101.249 32.5967 102.095 32.0136C106.974 28.8388 108.08 25.9232 108.08 25.9232C110.683 19.8977 112.96 14.3905 116.212 12.058C116.798 11.6045 118.489 10.3087 119.53 9.85512C122.523 8.42972 124.084 7.65223 124.93 6.80995C126.231 5.51413 127.467 2.66334 126.101 1.04357C124.409 -1.09453 121.677 0.59003 120.376 1.36752C111.398 6.68037 110.097 15.8159 106.974 21.1287C104.437 25.3401 100.534 28.5149 96.9558 28.774C94.2234 29.0332 91.361 28.4501 88.4985 27.1543C81.4724 24.1091 77.6341 20.2216 76.6583 19.5089C74.8367 18.0836 60.2641 3.89436 48.2938 3.24645C48.2938 3.24645 46.8626 0.330867 46.4722 0.330867C45.6265 0.201285 44.6507 2.08022 44.0652 2.33938C43.4146 2.66334 42.4388 0.460449 41.8533 0.59003Z" fill="#0E0E0E"/>
</svg>
