<svg width="14" height="15" viewBox="0 0 14 15" xmlns="http://www.w3.org/2000/svg">
<path fill="currentColor" stroke="#586994" stroke-width="1" d="M7 1.26074C7.07593 1.26079 7.20969 1.29073 7.47168 1.63281C7.60296 1.80423 7.74257 2.02231 7.90332 2.29395L8.46094 3.27637L8.67969 3.66797C8.8707 4.01073 9.02676 4.30725 9.25684 4.52344L9.36035 4.61035C9.58031 4.77767 9.83943 4.85989 10.1338 4.93066L10.4395 5L10.8633 5.09668C11.7002 5.28617 12.2693 5.41666 12.6592 5.57031C12.9451 5.683 13.062 5.77995 13.1152 5.86328L13.1514 5.94141C13.1834 6.04501 13.1843 6.20436 12.957 6.56543C12.8416 6.74888 12.6858 6.95463 12.4883 7.19824L11.7666 8.05566L11.4775 8.39355C11.224 8.69029 11.0031 8.93699 10.8789 9.22852L10.832 9.35645V9.35742C10.7509 9.61896 10.7552 9.89091 10.7812 10.2021L10.8125 10.5273L10.8564 10.9785C10.9423 11.8668 11.0001 12.4784 10.9805 12.9189C10.9658 13.2487 10.9097 13.3993 10.8516 13.4775L10.7939 13.5361C10.7284 13.5859 10.607 13.6406 10.2119 13.5273C10.011 13.4697 9.77669 13.3803 9.49512 13.2598L8.49219 12.8076V12.8066L8.09375 12.624H8.09277C7.69863 12.442 7.36601 12.2774 7 12.2773C6.72513 12.2773 6.46881 12.3699 6.19141 12.4932L5.90527 12.624L5.50879 12.8066L5.50781 12.8076C4.72447 13.1682 4.19001 13.4121 3.78809 13.5273C3.49088 13.6125 3.34865 13.6024 3.26855 13.5713L3.20605 13.5361C3.1319 13.4798 3.03919 13.3582 3.01953 12.9189C3.00968 12.6986 3.01921 12.4354 3.04199 12.1162L3.14355 10.9785L3.1875 10.5283V10.5273C3.22592 10.1304 3.26529 9.79865 3.20117 9.48828L3.16699 9.35645C3.08558 9.09354 2.9266 8.87418 2.73047 8.63867L2.52246 8.39453L2.2334 8.05566L1.51074 7.19824C1.31342 6.95494 1.15835 6.74873 1.04297 6.56543C0.872265 6.29419 0.829705 6.13687 0.833008 6.03125L0.848633 5.94141C0.879362 5.84272 0.960262 5.71935 1.34082 5.56934C1.53577 5.49252 1.77571 5.42209 2.07129 5.34668L3.13672 5.09668L3.56055 5C3.93104 4.91625 4.25386 4.85153 4.52539 4.6875L4.63867 4.61133L4.63965 4.61035C4.92888 4.39013 5.10216 4.05944 5.32031 3.66797L5.31934 3.66699L5.53809 3.27637C5.96848 2.50457 6.2649 1.97557 6.52734 1.63281C6.78956 1.29043 6.92409 1.26074 7 1.26074Z"/>
</svg>

